<?xml version="1.0" encoding="UTF-8" standalone="no"?>
<svg
   id="Camada_1"
   version="1.1"
   viewBox="0 0 1024 1024"
   sodipodi:docname="normal_semfundo.svg"
   inkscape:version="1.3.2 (091e20e, 2023-11-25)"
   xmlns:inkscape="http://www.inkscape.org/namespaces/inkscape"
   xmlns:sodipodi="http://sodipodi.sourceforge.net/DTD/sodipodi-0.dtd"
   xmlns="http://www.w3.org/2000/svg"
   xmlns:svg="http://www.w3.org/2000/svg">
  <sodipodi:namedview
     id="namedview13"
     pagecolor="#ffffff"
     bordercolor="#000000"
     borderopacity="0.25"
     inkscape:showpageshadow="2"
     inkscape:pageopacity="0.0"
     inkscape:pagecheckerboard="0"
     inkscape:deskcolor="#d1d1d1"
     inkscape:zoom="0.60934756"
     inkscape:cx="199.3936"
     inkscape:cy="134.57016"
     inkscape:window-width="2480"
     inkscape:window-height="1371"
     inkscape:window-x="8"
     inkscape:window-y="33"
     inkscape:window-maximized="0"
     inkscape:current-layer="Camada_1" />
  <!-- Generator: Adobe Illustrator 29.5.1, SVG Export Plug-In . SVG Version: 2.1.0 Build 141)  -->
  <defs
     id="defs1">
    <style
       id="style1">
      .st0 {
        fill: #044b94;
      }

      .st1 {
        fill: #fefefe;
      }

      .st2 {
        fill: #05abbe;
      }
    </style>
  </defs>
  <path
     class="st2"
     d="M737.2,285.79c1.44.84,7.75-.04,10.29.22,16.19,1.68,33.93,6.36,49.28,11.72,3.62,1.26,12.31,6.01,14.82,6.26,3.1.31,5.25-1.59,7.99-1.91,12.31-1.41,21.16,4.2,24.98,15.88.49,1.5.08,4.01.62,4.86.19.29,4.7,2.34,6.13,3.38,14.6,10.66,29.17,26.18,37.86,42.14,1.8,3.31,6.39,16.78,7.06,17.45.37.37,4.42,1.3,6.11,2.39,7.98,5.14,11.25,16.24,8.38,25.05-.93,2.85-4.26,6.68-4.46,8.4-.31,2.7,3.35,13.42,3.72,17.89,3.33,40.36-21.64,68.19-61.05,72.92-2.13,9.28-11.2,36.35-24,32.12-10.85-3.58,2.76-16.23,5.23-20.89.85-1.59,4.49-10.59,3.76-11.58-.8-1.09-7.35-1.7-7.94-7.69-1-10.25,15.19-5.06,21.49-5.42,36.37-2.11,57.8-36.94,46.42-70.88-5.78,2.39-15.27-4.7-18.92-3.69-2.32.64-9.81,6.42-12.97,8.12-11.39,6.12-23.24,11.65-35.03,16.97-1.32,3.12-1.3,6.09-2.51,9.49-3.86,10.84-12.2,12.93-22.59,14.63-4.54,12.5-9.83,24.78-16.48,36.3-2.07,3.59-7.41,8.87-7.44,12.56-.03,4.07,4.8,19.08,6.54,23.51,1.65,4.21,9.24,19.62,13.98,19.66s8.83-6.22,17.03.34c13.46,10.76-3.6,35.64-18.52,18.52-5.18-5.94-3.86-4.43-9.94-9.06-5.62-4.29-9.7-12.08-12.53-18.47-2.72-6.15-8.18-28.39-10.08-30.92-1.01-1.34-8.99-5.5-11.47-7.53-16.15-13.22-23.24-30.58-43.63-40.37-11.37-5.46-33.5-9.75-45.91-8.2-4.61.58-2.84,3.01-4.98,6.02-12.6,17.72-38.32,8.77-40.07-12.07-24.18-5.31-53.34-18.64-59.9-44.88-7.55-30.2,10.96-51.96,34.18-67.83,1.49-1.02,5.2-2.04,5.9-3.17.75-1.22-.79-3.64-.62-5.46.88-9.51,5.76-16.09,14.49-19.6,2.11-.85,4.63-.6,6.51-1.49,2.75-1.3,10.21-10.61,13.58-13.42,13.82-11.54,31.61-17.78,49.26-20.74,4.87-.82,14.11-.49,17.5-1.5,2.04-.61,5.47-5.62,7.77-7.23,8.63-6.05,19.89-4.79,27.34,2.53,1.17,1.15,2.34,4.43,2.8,4.7ZM697.98,299.01c-24.3,2.36-48.31,8.65-64.97,27.49,7.56,6.45,10.83,15.24,8.03,25.05-.88,3.09-6.03,9.11-5.92,9.77.2,1.28,13.78,20.55,14.89,21.24s4.48-.73,6.48-.65c9.6.39,13.75,8.93,17.99,9.18,7.27-3.21,59.42-8.79,61.39-11.22.47-.59,1.4-11.72,4.93-13.55-5.08-10.21-10.64-20.57-15.66-30.96-1.75-3.63-5.34-14.42-7.05-16.71-.84-1.13-5.78-1.61-7.77-2.46-7.48-3.2-11.94-8.81-12.33-17.17ZM803.98,315.06c-7.2-4.53-59.17-18.56-62.86-15.95-.54.38-3.33,8.94-5.67,11.83-1.16,1.43-4.14,2.67-4.37,3.65-.29,1.21,8.69,19.93,10.07,22.76,1.91,3.93,9.05,20.04,12.35,20.65,2.58.48,5.76-.29,8.77.23,2.29.39,5.03,2.48,6.43,2.6,2.41.21,29.68-25.45,34.84-27.85.29-6.01-1.78-12.02.45-17.93ZM868.88,412.84c.46-.77-1-5.31-.97-7.34.07-3.95,2.95-10.56,5.56-13.54,3.14-3.57,8.13-3.38,7.35-8.22-1.38-8.53-17.29-28.89-23.81-35.26-1.99-1.95-12.07-10.47-13.98-11.1-3.67-1.19-3.83,1.73-6.09,3.05-3.44,2.02-8.72,4.14-12.7,4.29s-10.07-3.24-12.2-2.27c-8.24,7.82-17.04,15.01-25.56,22.51-1.32,1.16-8.08,5.74-8.34,6.19-.34.58,1.21,10.26.87,13.33-.42,3.73-2.3,5.43-2.89,8.78,4.44,3.56,23.47,34.87,25.55,35.55,2.61.87,6.46.04,10.61,1.39,4.61,1.51,6.17,4.53,10.05,6.61,10.45-5.3,21.44-9.65,31.71-15.32,2.07-1.14,14.42-7.94,14.86-8.68ZM622.8,367.2c-.94-.53-7.86-.71-11.33-2.18-2.13-.91-6.9-5.03-7.79-4.89-2.11.32-17.91,13.4-20.19,15.86-25.09,27.09-11.82,56.76,19.53,69.49,3.32,1.35,17.74,5.98,20.33,5.59.75-.11,1.43-2.63,2.59-3.61,2.42-2.06,6.73-4.44,9.79-5.22,1.75-.45,5.66.11,6.18-.33.69-.58,5.14-16.44,4.93-17.31-.35-1.45-11.33-6.06-12.75-16.18-1.05-7.5.8-12.14,3.79-18.68-2.74-2.67-13.73-21.77-15.07-22.53ZM787.36,465.65c-7.55-9.48-7.52-21.89,1.58-30.29l-23.36-33.44c-2.52-2.25-5.47.05-8.12.11-7.33.17-13.17-3.99-18.15-8.88l-62.26,10.89c-.45,6.41-3.1,14.17-8.71,17.78-2.18,1.4-5.98,1.89-7.26,3.74-.6.86-5.97,18.79-6.06,20.05-.3,4.07,4.08,7.63,5.65,11.41,33.42-2.06,58.92,5.64,81.85,29.94,4.11,4.36,19.27,24.05,24.13,24.94,2.5.46,11.11-15.33,12.55-18.23,4.05-8.19,6.46-17.26,10.71-25.38.4-1.73-1.86-1.8-2.54-2.66Z"
     id="path2" />
  <path
     class="st0"
     d="M156,572v-68h26v115h-26.5l-43.5-72v72h-25v-115h27.5c14.62,20.93,25.73,44.15,39.31,65.69.56.89.94,2.22,2.19,2.31Z"
     id="path3" />
  <path
     class="st0"
     d="M515,504l41,69v-69h25v115h-27c-11.68-20.62-23.74-41.14-36.19-61.31-1.96-3.18-4.18-7.11-6.81-9.69v71h-25v-115h29Z"
     id="path4" />
  <polygon
     class="st0"
     points="282 504 282 548 322 548 322 504 348 504 348 619 322 619 322 571 282 571 282 619 256 619 256 504 282 504"
     id="polygon4" />
  <path
     class="st0"
     d="M362,619l40.09-113.41c.72-1.54,1.92-1.48,3.36-1.64,8.64-.99,19.08.9,27.95,0l40.61,115.06h-28l-8.61-26.06-39.29.16-8.1,25.9h-28ZM405,573h26l-12.51-40.01-13.49,40.01Z"
     id="path5" />
  <path
     class="st0"
     d="M661.16,537.86c-.54-.32-5.53-7.45-8.22-9.29-18.37-12.59-43.52,7.54-15.91,17.91,18.32,6.88,44.19,8.17,46.98,34.01,4.3,39.79-49.14,52.42-75.48,31.49-3.19-2.54-14.94-13.59-11.52-17.46,3.06-3.46,13.49-7.72,17.39-11.48,8.13,11.12,17.71,17.14,32.05,14.9,11.01-1.72,15.19-13.71,5.25-20.13-16.21-10.47-49.57-6.93-52.7-35.3-4.73-42.92,54.54-53.2,77.98-24.98,2.33,2.81,6.35,6.52,3.56,9.48-2.03,2.15-17.15,12.16-19.37,10.85Z"
     id="path6" />
  <path
     class="st2"
     d="M793,723h-27l-8.96-25.54h-39.08l-8.96,25.54h-26l43.46-115.07c6.94,1.01,16.5-1.13,23.04.07,1.12.2,1.91.49,2.41,1.59l41.09,113.41ZM751,678l-13.99-41-13.01,41h27Z"
     id="path7" />
  <rect
     class="st2"
     x="808"
     y="609"
     width="25"
     height="114"
     id="rect7" />
  <rect
     class="st0"
     x="200"
     y="558"
     width="38"
     height="22"
     id="rect8" />
  <path
     class="st1"
     d="M787.36,465.65c.68.86,2.94.93,2.54,2.66-4.24,8.12-6.66,17.19-10.71,25.38-1.44,2.91-10.04,18.69-12.55,18.23-4.85-.89-20.02-20.58-24.13-24.94-22.93-24.31-48.43-32.01-81.85-29.94-1.57-3.78-5.95-7.34-5.65-11.41.09-1.26,5.47-19.19,6.06-20.05,1.28-1.86,5.08-2.34,7.26-3.74,5.61-3.61,8.27-11.37,8.71-17.78l62.26-10.89c4.98,4.89,10.81,9.04,18.15,8.88,2.65-.06,5.61-2.36,8.12-.11l23.36,33.44c-9.1,8.4-9.13,20.81-1.58,30.29Z"
     id="path8"
     style="fill:none" />
  <path
     class="st1"
     d="M868.88,412.84c-.44.74-12.79,7.54-14.86,8.68-10.26,5.67-21.25,10.02-31.71,15.32-3.87-2.08-5.43-5.11-10.05-6.61-4.15-1.35-8-.53-10.61-1.39-2.08-.69-21.11-31.99-25.55-35.55.59-3.35,2.47-5.05,2.89-8.78.35-3.08-1.21-12.76-.87-13.33.26-.45,7.03-5.03,8.34-6.19,8.52-7.5,17.32-14.7,25.56-22.51,2.14-.96,8.23,2.43,12.2,2.27s9.26-2.28,12.7-4.29c2.26-1.32,2.42-4.24,6.09-3.05,1.91.62,11.99,9.15,13.98,11.1,6.52,6.38,22.43,26.73,23.81,35.26.78,4.84-4.22,4.64-7.35,8.22-2.61,2.97-5.49,9.59-5.56,13.54-.03,2.03,1.42,6.57.97,7.34Z"
     id="path9"
     inkscape:label="path9"
     style="fill:none" />
  <path
     class="st1"
     d="M697.98,299.01c.39,8.36,4.85,13.97,12.33,17.17,2,.86,6.93,1.34,7.77,2.46,1.71,2.29,5.3,13.08,7.05,16.71,5.02,10.39,10.58,20.75,15.66,30.96-3.53,1.83-4.46,12.96-4.93,13.55-1.96,2.42-54.12,8.01-61.39,11.22-4.24-.25-8.39-8.79-17.99-9.18-2-.08-5.42,1.31-6.48.65s-14.68-19.96-14.89-21.24c-.1-.66,5.04-6.68,5.92-9.77,2.79-9.81-.48-18.6-8.03-25.05,16.66-18.84,40.67-25.13,64.97-27.49Z"
     id="path10"
     style="fill:none" />
  <path
     class="st1"
     d="M622.8,367.2c1.35.76,12.33,19.86,15.07,22.53-2.99,6.54-4.84,11.18-3.79,18.68,1.42,10.12,12.4,14.73,12.75,16.18.21.88-4.24,16.73-4.93,17.31-.52.44-4.42-.12-6.18.33-3.06.79-7.37,3.17-9.79,5.22-1.16.99-1.83,3.5-2.59,3.61-2.6.39-17.01-4.24-20.33-5.59-31.35-12.74-44.62-42.4-19.53-69.49,2.29-2.47,18.09-15.54,20.19-15.86.89-.14,5.67,3.99,7.79,4.89,3.46,1.47,10.38,1.65,11.33,2.18Z"
     id="path11"
     style="fill:none" />
  <path
     class="st1"
     d="M803.98,315.06c-2.23,5.91-.16,11.92-.45,17.93-5.16,2.4-32.44,28.06-34.84,27.85-1.39-.12-4.14-2.21-6.43-2.6-3.02-.51-6.19.25-8.77-.23-3.3-.61-10.44-16.72-12.35-20.65-1.38-2.83-10.36-21.55-10.07-22.76.24-.98,3.22-2.22,4.37-3.65,2.34-2.89,5.13-11.45,5.67-11.83,3.69-2.61,55.67,11.42,62.86,15.95Z"
     id="path12"
     style="fill:none" />
  <polygon
     class="st1"
     points="405 573 418.49 532.99 431 573 405 573"
     id="polygon12"
     style="fill:none" />
  <polygon
     class="st1"
     points="751 678 724 678 737.01 637 751 678"
     id="polygon13"
     style="fill:none" />
</svg>
