<?xml version="1.0" encoding="UTF-8"?>
<svg id="Camada_1" xmlns="http://www.w3.org/2000/svg" version="1.1" viewBox="0 0 1024 1024">
  <!-- Generator: Adobe Illustrator 29.5.1, SVG Export Plug-In . SVG Version: 2.1.0 Build 141)  -->
  <defs>
    <style>
      .st0 {
        fill: #001c51;
      }

      .st1 {
        fill: #000233;
      }

      .st2 {
        fill: #071d56;
      }

      .st3 {
        fill: #00a1aa;
      }

      .st4 {
        fill: #041d56;
      }

      .st5 {
        fill: #021c55;
      }

      .st6 {
        fill: #077a80;
      }

      .st7 {
        fill: #000435;
      }

      .st8 {
        fill: #f9f9f9;
      }

      .st9 {
        fill: #06104a;
      }

      .st10 {
        fill: #012d5f;
      }

      .st11 {
        fill: #01134c;
      }

      .st12 {
        fill: #9ae6e7;
      }

      .st13 {
        fill: #017c83;
      }

      .st14 {
        fill: #000938;
      }

      .st15 {
        fill: #fefefe;
      }

      .st16 {
        fill: #00a4aa;
      }

      .st17 {
        fill: #000837;
      }

      .st18 {
        fill: #005188;
      }

      .st19 {
        fill: #00a1a9;
      }

      .st20 {
        fill: #020b43;
      }

      .st21 {
        fill: #fdfefe;
      }
    </style>
  </defs>
  <rect class="st15" width="1024" height="1024"/>
  <path class="st16" d="M808,206c1.1,146.3,1.43,292.63,1,439-2.89,30.78-31.76,57.06-62,60h-471c-28.44-3.2-56.07-29.02-59.99-57.51.68-147.93-1.42-296.19,1.06-443.93,9.2-29.28,34.86-49.06,65.44-51.56h460.98c29.52,2.09,58.68,24.37,64.51,53.99Z"/>
  <path class="st18" d="M181,862c-1.48-.49-.91-1.34-1.04-2.45,2.73-30.28-3.47-66.56,0-96.11.12-1.01.46-3.45,1.55-3.45h19c14.06,20.37,25.33,43.33,39.27,63.7.62.9-.17,1.83,2.23,1.3v-63.5c0-1.92,18.15-2.98,19,.5v100c-.11,1.38-1.47.92-2.45,1.04-3.52.44-14.14.55-16.64-1.46-10.46-15.43-19.39-31.87-29.5-47.5-3.02-4.68-6.99-11.53-10.44-15.57-.99-1.16-.88-1.8-1.99-.51-.66,21.07-.82,42.18-.49,63.32l-18.51.68Z"/>
  <path class="st18" d="M525,862l-1-102h20l28.63,47.87,11.37,17.13v-63.5c0-2.09,15.31-1.82,17.55-1.54,1.11.14,1.96-.43,2.45,1.04-.67,9.79-.67,19.46,0,29,.03,6.66,0,13.37,0,20l-.49,51.29-16.51.71c-1.6-.26-2.58-.53-3.44-2.05-13.09-18.71-23.78-43.61-37.71-61.3-.9-1.14-1.01-1.96-2.85-1.65-.56,14.84-.9,29.84-1,45,.65,6.37.69,12.83.51,19.24-5.84.07-11.67.32-17.51.76Z"/>
  <path class="st18" d="M326,862c-1.7-.41-2.07-1.79-2.05-3.45,2.71-29.96-3.43-65.86,0-95.1.12-1.01.46-3.45,1.55-3.45h18.5v40.5c0,.11,1.39,1.5,1.5,1.5h38.5v-40.5c0-2.06,14.25-1.84,16.55-1.55,1.66.21,2.99.14,3.45,2.05v98c-.03.66.05,1.34,0,2h-20.01s.61-39.59.61-39.59c-.1-.98-.95-1.04-1.6-1.41-12.79-1.21-25.46-1.21-38,0-.36.05-.78-.1-1,0-.85,6.87-.99,14.23,0,21,0,.67,0,1.33,0,2-.6,5.75-.76,11.54-.49,17.36l-17.51.64Z"/>
  <path class="st18" d="M444,841c-3.04,5.11-3.08,15.73-7.5,21h-19.5c6.72-19.15,12.76-38.72,19.71-57.79,2.3-6.31,5.97-13.23,8.18-19.02s4.97-23.91,11.63-25.17c4.89-.93,11.84.68,17.02-.09l37.46,102.07h-20.5c-5.58-5.19-3.18-18.48-9.5-21-12.1-1.16-24.98-1.35-37,0Z"/>
  <path class="st3" d="M725,862c-.28-3.65,2.23-6.58,3.45-10.05,6.1-17.31,11.86-34.75,18-52,3.76-10.57,7.49-27.9,13.14-36.86,3.69-5.85,14.84-1.98,20.95-3.17l35.46,102.07h-20c-2.4-7.19-3.97-15.01-7.99-21.51l-35.89-.37c-2.46,7.24-3.84,15.25-7.62,21.88h-19.5Z"/>
  <path class="st18" d="M692.96,783.96c-4.34-.07-13.6,3.93-17.25,3.09-.78-.18-5.84-9.33-10.99-11.27-16.29-6.14-36.39,10.74-16.4,21.4,14.23,7.59,38.09,6.04,45.71,23.29,6.98,15.8-.47,30.29-14.7,38.35-10.51,5.95-29.36,6.31-40.59,1.95s-19.4-15.04-19.7-26.73c3.07-1.19,19.64-3.25,20.93-1.99.43.42.29,7.14,4.69,10.81,6.51,5.42,27.94,6.78,30.9-2.8,3.92-12.66-5.52-15.65-15.01-19.09-15.89-5.76-41.04-11.24-40.61-33.48.22-11.26,12.35-22.98,22.29-26.77,20.05-7.65,47.09.19,50.75,23.24Z"/>
  <path class="st19" d="M848,760v102h-18.5c-.11,0-1.5-1.39-1.5-1.5v-99c0-.11,1.39-1.5,1.5-1.5h18.5Z"/>
  <path class="st13" d="M809,645l-1-439c3.27,16.61.83,43.62.96,61.54.79,106.14.82,213.36,0,319.92-.14,18.21,1.7,39.86.04,57.54Z"/>
  <path class="st18" d="M310,805c.98.09,1.66-.32,2,1l-.52,15.86-35.12.07c.65.35.19.71-1.36,1.07-.98.05-.93-.65-1.03-1.45-.39-3.05-.4-11.05-.02-14.11.12-.98-.34-2.34,1.04-2.45,11.09,1.55,23.84.73,35,0Z"/>
  <path class="st6" d="M747,705c-1.96.19-4.02-.13-6,0h-458c-2.27-.17-4.77.25-7,0h471Z"/>
  <path class="st12" d="M741,705h-458,458Z"/>
  <path class="st7" d="M261,862v-100,100Z"/>
  <path class="st0" d="M404,860v-98c-1.17,32.34,1.57,65.79,0,98Z"/>
  <path class="st10" d="M312,806c1.07,4.2-.79,12.27,0,17.01h-37.01c-.56-3.02,1.53-1.94,3.45-2.01,10.83-.36,21.73.26,32.55,0,.9-.9-1.43-12.89.99-15.01Z"/>
  <path class="st4" d="M200,798v64.01c-4.71-.95-15.15,1.27-19,0,2.45-2.47,17.05-.04,18.01-.99,1.26-8.49-2.09-59.42.99-63.01Z"/>
  <path class="st20" d="M604,810c-.02,17.32.01,34.68,0,52.01-5.25-.6-12,.8-17.01,0,2.23-2.44,15.09-.08,16.01-.99l.99-51.01Z"/>
  <path class="st11" d="M543,842c-.28.87-.62.86-1,0,.08-13.47-.86-28.25-.01-41.51.08-1.32-.63-3.21,1.01-3.49-.06,14.98.08,30.02,0,45Z"/>
  <path class="st17" d="M383,821c-11.85,1.15-26.52-1.55-38,0,1.04-1.66,3.79-1,5.49-1.02,9.04-.1,20.39-.8,29.12-.05,1.93.17,1.85.19,3.39,1.07Z"/>
  <path class="st14" d="M481,841h-37c.75-1.27,1.18-.91,2.41-1.06,7.09-.83,23.94-.68,31.21-.02,1.99.18,2.05.54,3.38,1.07Z"/>
  <path class="st5" d="M543,842c-.03,6.65.02,13.35,0,20.01h-18.01c2.34-2.46,16.07-.06,17.01-1,.02-6.32-.04-12.68,0-19.01h1Z"/>
  <path class="st1" d="M310,805c-1.04,1.66-3.79,1-5.49,1.02-7.99.08-16.03.1-24.03,0-1.69-.02-4.45.64-5.49-1.02,11.29.77,23.88-1.04,35,0Z"/>
  <path class="st2" d="M344,844c-.04,5.99.03,12.02,0,18.01-5.07-.82-13.45,1.1-18.01,0,2.34-2.46,16.07-.06,17.01-.99.58-5.39-1.28-12,.99-17.01Z"/>
  <path class="st9" d="M604,790c-1.66-1.04-1-3.79-1.02-5.49-.08-7.56-.74-16.29,1.02-23.51,1.1,3.32-.03,23.53,0,29Z"/>
  <path class="st2" d="M344,842c-1.66-1.04-1-3.79-1.02-5.49-.03-2.78-.7-14.71,1.02-15.51v21Z"/>
  <path class="st8" d="M527.65,220.35c1.76,1.68,6.01,8.49,7.35,9.15,3.69,1.83,20.91,3.46,27.01,4.99s11.82,3.47,17.51,5.49c3.5,1.24,13.28,6.56,15.76,5.87,1.93-.53,6.32-4.85,10.46-5.62,12.76-2.36,30.11,3.71,35.06,16.47,1.22,3.14,1.88,12.32,2.37,13.13.63,1.03,18.45,8.75,21.75,10.74,23.59,14.23,40.75,35.99,52.25,60.75,1.14,2.45,4.28,12.55,5.06,13.43.69.77,12,2.83,16.77,6.74,13.44,11.01,13.92,29.5,3.97,42.98-1.35,1.83-5.38,4.56-5.83,6.25-.6,2.26,2.45,13.15,2.84,16.79,4.22,39.9-9.51,74.8-44.68,95.29-2.75,1.6-13.44,5.77-14.33,6.67-.75.76-3,11.49-5.54,15.46-12.14,18.98-39.12,17.66-51.02-.97-38.9,8.01,2.76,47.18-13.56,68.39-5.09,6.62-15.1,7.8-21.78,3.08-9.34-6.6-20.07-45.54-25.6-58.4-1.51-3.51-9.35-21.61-10.95-23.05-2.28-2.03-7.76-.59-11-1-13.92-1.75-25.54-13.31-26.51-27.51-.15-2.23.99-7.78.56-8.47-.21-.33-5.21-4.08-6.23-4.84-15.74-11.79-36.42-18.05-55.84-20.16-4.34-.47-26.22-2.18-28-.03-.94,1.13-1.27,4.8-2.3,6.7-10.28,18.89-36.33,22.61-50.15,5.79-2.95-3.59-6.11-14.47-7.01-14.99-1.03-.6-14.91-2.06-18.21-2.79-69.13-15.36-82.02-84.8-31.83-131.2,1.76-1.62,8.95-6.27,9.53-7.47,1.22-2.53.85-9.78,2.7-14.3,4.04-9.89,15.68-17.62,26.34-17.74,3.22-.04,7.49,2.3,10.44.52.92-.55,10.29-14.03,12.49-16.5,22.99-25.94,50.85-40.12,84.48-47.52,2.97-.65,15.71-1.92,16.85-2.65.54-.35,4.27-8.49,6.66-10.85,11.87-11.72,30.7-9.62,42.18,1.39Z"/>
  <path class="st21" d="M477,822h-26l12.01-39c2.03.92,2.72,4.08,3.44,6.04,3.96,10.78,6.38,22.24,10.54,32.96Z"/>
  <path class="st21" d="M782,822h-21.5c-.16,0-3.26-1.09-2.34-2.31l12.83-36.69,11.5,35.89-.49,3.11Z"/>
  <path class="st16" d="M424.16,454.84c-.04-3.87-6.41-9.28-7.02-11.55-.43-1.62,13.48-25.02,14.81-25.79.37-.21,6.48.68,8.54.5,19.38-1.69,31.66-20.21,26.59-38.9l43.66-17.95c2.82-.41,9.34,8.03,13.58,10.04,11.44,5.43,20.24,1.67,30.93-3.04l38.66,26.49c-5.74,10.23-6.85,21.36.9,30.88-10.84,12.75-20.85,26.34-31.83,38.97-1.47,1.69-7.5,8.97-8.68,9.32-4.45,1.31-11.87-.49-17.35.65-4,.83-12.68,7.27-13.44,7.27-.86,0-12.01-7.89-14.48-9.23-26.83-14.58-54.4-18.61-84.86-17.64Z"/>
  <path class="st16" d="M506.87,271.13l13.22,48.4c-.03,1.39-4.47,3.97-6.08,5.97-1.08,1.34-3.1,4.69-3.74,6.26-1.64,3.98-1.85,12.54-3.86,14.14l-47.17,18.92c-7.15-1.17-12.81-5.79-20.74-5.91-5.42-.08-13,3.82-16.01,3.69-3.57-.15-32-25.6-37.99-28.6-.56-6.41,1.25-10.61-.6-17.4-1.04-3.81-5.54-9.04-5.73-10.29-.43-2.91,19.28-23.67,22.83-26.84,13.46-12.02,30.61-22.11,48.02-26.98,4.85-1.36,21.44-5.32,25.49-4.54,2.81.54,4.16,7.22,6.07,9.97,5.93,8.51,16.13,12.95,26.3,13.2Z"/>
  <path class="st16" d="M707,357.98c-4.32,1.49-9.82,6.41-12.44,10.08-3.09,4.33-3.78,9.36-6.13,13.87l-43.82,10.83c-9.68-10.47-23.89-16.37-37.7-10.21l-41.95-27.09c-1.72-1.95,1.11-8.75,1.06-11.91-.09-4.98-2.96-10.09-3.92-14.86l35.95-32.22c10.61,3.09,20.07,5.83,30.28-.63,2.87-1.82,8.71-9.68,10.96-9.65,33.06,11.69,55.03,40.08,67.7,71.79Z"/>
  <path class="st16" d="M401.84,435.84c-1.18.75-8.65-.09-11.26.25-7.53.98-13.25,5.43-18.09,10.9-2.34,2.65-2.57,6.11-5.94,6.1-19.13-.02-45.7-10.24-56.39-26.76-18.69-28.88-4.26-63.55,21.35-82.1,8.13,8.63,18.88,12.53,30.75,10.52,4.4-.75,11.11-6.41,14.01-5.62l35.27,27.84c-5.98,12.14-3.12,23.38,5.22,33.51l-14.92,25.35Z"/>
  <path class="st16" d="M721.99,416.01c8.67,40.61-4.03,84.22-46.34,97.91-4.25-5.4-8.62-10.15-14.95-13.12-2.69-1.26-6.99-.84-8.54-3.46l-19.09-62.21c9.69-4.15,16.37-15.63,16.02-26.03l42.21-9.93c7.7,9.55,17.75,17.33,30.69,16.84Z"/>
  <path class="st16" d="M619.8,527.79c-.46.65-12.37,4.3-14.86,5.65-13.78,7.47-17.09,20.24-14.82,34.94,1.53,9.94,6.39,19.53,7.39,29.61-7.57-15.93-12.3-33.25-19.5-49.5-1.65-3.72-11.73-21.89-11.84-23.19-.06-.75,4.3-6.02,5.32-8.33,5.39-12.11,3.56-22.97-3.03-34l38.23-46.05c2.97.59,9.6,1.13,11.14,3.74l18.16,59.94c.15,3.29-5.98,6.43-8.5,9.38-1.32,1.55-2.71,3.53-3.67,5.33-1.69,3.16-3.41,11.63-4.02,12.47Z"/>
  <path class="st16" d="M585.71,285.7l-35.74,31.81c-1.27.59-11.85-1.76-13.24-2.5-2.83-1.5-11.64-43.49-14.79-49.43,6.92-4.11,10.8-11.42,13.71-18.66,7.11.03,45.14,8.57,47.86,13.06,1.56,2.59-.11,13.35.55,17.45.5,3.1,4,5.55,1.65,8.26Z"/>
</svg>