<svg width="145" height="145" viewBox="0 0 145 145" fill="none" xmlns="http://www.w3.org/2000/svg">
<mask id="mask0_11_2" style="mask-type:alpha" maskUnits="userSpaceOnUse" x="0" y="0" width="145" height="145">
<circle cx="72.5" cy="72.5" r="72.5" fill="#D9D9D9"/>
</mask>
<g mask="url(#mask0_11_2)">
<path d="M72.3013 70.6L72.3013 157.203L-2.69873 113.901L72.3013 70.6Z" fill="#014994"/>
<path d="M72.3013 -16L72.3013 70.6025L-2.69873 27.3013L72.3013 -16Z" fill="#014994"/>
<path d="M72.3013 70.6L147.301 113.901L72.3013 157.203L72.3013 70.6Z" fill="#014994"/>
<path d="M72.3 70.6L147.3 27.2987V113.901L72.3 70.6Z" fill="#01A8BD"/>
<path d="M72.3013 70.6025L72.3013 -16L147.301 27.3013L72.3013 70.6025Z" fill="#014994"/>
<path d="M72.3 70.6L-2.70001 113.901L-2.70001 27.2987L72.3 70.6Z" fill="#01A8BD"/>
</g>
<g clip-path="url(#clip0_11_2)">
<path d="M72 21C75.3188 21 78 23.6812 78 27V39H100.5C107.962 39 114 45.0375 114 52.5V103.5C114 110.962 107.962 117 100.5 117H43.5C36.0375 117 30 110.962 30 103.5V52.5C30 45.0375 36.0375 39 43.5 39H66V27C66 23.6812 68.6812 21 72 21ZM51 93C49.35 93 48 94.35 48 96C48 97.65 49.35 99 51 99H57C58.65 99 60 97.65 60 96C60 94.35 58.65 93 57 93H51ZM69 93C67.35 93 66 94.35 66 96C66 97.65 67.35 99 69 99H75C76.65 99 78 97.65 78 96C78 94.35 76.65 93 75 93H69ZM87 93C85.35 93 84 94.35 84 96C84 97.65 85.35 99 87 99H93C94.65 99 96 97.65 96 96C96 94.35 94.65 93 93 93H87ZM61.5 69C61.5 67.0109 60.7098 65.1032 59.3033 63.6967C57.8968 62.2902 55.9891 61.5 54 61.5C52.0109 61.5 50.1032 62.2902 48.6967 63.6967C47.2902 65.1032 46.5 67.0109 46.5 69C46.5 70.9891 47.2902 72.8968 48.6967 74.3033C50.1032 75.7098 52.0109 76.5 54 76.5C55.9891 76.5 57.8968 75.7098 59.3033 74.3033C60.7098 72.8968 61.5 70.9891 61.5 69ZM90 76.5C91.9891 76.5 93.8968 75.7098 95.3033 74.3033C96.7098 72.8968 97.5 70.9891 97.5 69C97.5 67.0109 96.7098 65.1032 95.3033 63.6967C93.8968 62.2902 91.9891 61.5 90 61.5C88.0109 61.5 86.1032 62.2902 84.6967 63.6967C83.2902 65.1032 82.5 67.0109 82.5 69C82.5 70.9891 83.2902 72.8968 84.6967 74.3033C86.1032 75.7098 88.0109 76.5 90 76.5ZM21 63H24V99H21C16.0312 99 12 94.9688 12 90V72C12 67.0312 16.0312 63 21 63ZM123 63C127.969 63 132 67.0312 132 72V90C132 94.9688 127.969 99 123 99H120V63H123Z" fill="white"/>
</g>
<defs>
<clipPath id="clip0_11_2">
<rect width="120" height="96" fill="white" transform="translate(12 21)"/>
</clipPath>
</defs>
</svg>
