<svg width="350" height="450" viewBox="0 0 350 450" fill="none" xmlns="http://www.w3.org/2000/svg">
<g clip-path="url(#clip0_1_142)">
<rect width="350" height="450" rx="10" fill="white"/>
<rect width="350" height="73.2" fill="#93BFEB"/>
<rect y="73" width="350" height="276.4" fill="white"/>
<path d="M96.5049 355.928H95.5029V360.832H96.4346C97.6885 360.82 98.3271 360.006 98.3506 358.389C98.3389 356.771 97.7236 355.951 96.5049 355.928ZM97.2607 366H91.6357V365.525H93.042V355.928H91.6357V355.453H97.5068C98.2803 355.453 98.9482 355.588 99.5107 355.857C100.495 356.338 100.987 357.129 100.987 358.23C100.987 358.676 100.911 359.08 100.759 359.443C100.243 360.721 98.9717 361.359 96.9443 361.359H95.5029V365.525H96.7861C97.0322 365.549 97.1904 365.707 97.2607 366ZM104.099 362.186C104.099 363.287 104.169 364.09 104.31 364.594C104.521 365.344 104.989 365.719 105.716 365.719C106.126 365.719 106.46 365.596 106.718 365.35C107.163 364.904 107.386 363.826 107.386 362.115C107.386 361.049 107.315 360.27 107.175 359.777C106.964 359.016 106.483 358.635 105.733 358.635C105.288 358.635 104.942 358.77 104.696 359.039C104.298 359.496 104.099 360.545 104.099 362.186ZM105.821 358.178C106.829 358.178 107.69 358.453 108.405 359.004C109.331 359.742 109.794 360.768 109.794 362.08C109.794 363.064 109.501 363.932 108.915 364.682C108.13 365.678 107.046 366.176 105.663 366.176C104.655 366.176 103.788 365.871 103.062 365.262C102.147 364.488 101.69 363.439 101.69 362.115C101.69 361.178 101.96 360.357 102.499 359.654C103.272 358.67 104.38 358.178 105.821 358.178ZM114.47 358.898H113.415L115.12 364.014L116.28 360.199L115.683 358.441H119.093V358.898H118.038L119.761 364.031L121.396 358.898H120.306V358.441H122.802C122.802 358.5 122.796 358.559 122.784 358.617C122.772 358.805 122.661 358.898 122.45 358.898C122.216 358.922 121.993 359.092 121.782 359.408L119.585 366.088H119.005C118.771 366.088 118.589 366.047 118.46 365.965C118.308 365.859 118.114 365.473 117.88 364.805L116.579 361.008L114.944 366.088H114.364C114.188 366.088 114.042 366.064 113.925 366.018C113.679 365.912 113.433 365.508 113.187 364.805L111.147 358.898H110.409V358.441H114.47V358.898ZM127.267 358.635C126.329 358.67 125.819 359.66 125.737 361.605L126.862 361.658C127.331 361.682 127.683 361.652 127.917 361.57C128.245 361.441 128.409 361.102 128.409 360.551C128.397 359.297 128.017 358.658 127.267 358.635ZM130.554 364.189C130.483 364.377 130.39 364.559 130.272 364.734C129.675 365.695 128.69 366.176 127.319 366.176C126.546 366.176 125.854 366.018 125.245 365.701C123.968 365.033 123.329 363.85 123.329 362.15C123.329 361.107 123.61 360.234 124.173 359.531C124.911 358.629 125.942 358.178 127.267 358.178C127.993 358.178 128.644 358.301 129.218 358.547C130.237 359.004 130.747 359.73 130.747 360.727C130.747 360.926 130.712 361.107 130.642 361.271C130.337 361.928 129.241 362.227 127.354 362.168L125.737 362.115C125.749 362.795 125.808 363.381 125.913 363.873C126.183 365.068 126.786 365.666 127.724 365.666C128.017 365.666 128.304 365.613 128.585 365.508C129.288 365.25 129.804 364.764 130.132 364.049L130.554 364.189ZM136.073 365.543C136.144 365.543 136.208 365.549 136.267 365.561C136.419 365.584 136.495 365.73 136.495 366H131.521V365.543C131.673 365.543 131.808 365.531 131.925 365.508C132.335 365.438 132.54 365.145 132.54 364.629V358.898H131.521V358.441H134.597L134.72 360.076C134.849 359.748 135.036 359.443 135.282 359.162C135.833 358.588 136.472 358.301 137.198 358.301C137.351 358.301 137.497 358.318 137.638 358.354C138.212 358.506 138.499 358.875 138.499 359.461C138.499 359.625 138.464 359.783 138.394 359.936C138.194 360.381 137.86 360.604 137.392 360.604C137.251 360.604 137.122 360.586 137.005 360.551C136.759 360.457 136.53 360.223 136.319 359.848C136.167 359.578 136.026 359.443 135.897 359.443C135.827 359.443 135.751 359.461 135.669 359.496C135.153 359.766 134.854 360.516 134.772 361.746V365.543H136.073ZM143.052 358.635C142.114 358.67 141.604 359.66 141.522 361.605L142.647 361.658C143.116 361.682 143.468 361.652 143.702 361.57C144.03 361.441 144.194 361.102 144.194 360.551C144.183 359.297 143.802 358.658 143.052 358.635ZM146.339 364.189C146.269 364.377 146.175 364.559 146.058 364.734C145.46 365.695 144.476 366.176 143.104 366.176C142.331 366.176 141.64 366.018 141.03 365.701C139.753 365.033 139.114 363.85 139.114 362.15C139.114 361.107 139.396 360.234 139.958 359.531C140.696 358.629 141.728 358.178 143.052 358.178C143.778 358.178 144.429 358.301 145.003 358.547C146.022 359.004 146.532 359.73 146.532 360.727C146.532 360.926 146.497 361.107 146.427 361.271C146.122 361.928 145.026 362.227 143.14 362.168L141.522 362.115C141.534 362.795 141.593 363.381 141.698 363.873C141.968 365.068 142.571 365.666 143.509 365.666C143.802 365.666 144.089 365.613 144.37 365.508C145.073 365.25 145.589 364.764 145.917 364.049L146.339 364.189ZM153.581 366L153.335 364.348C153.276 364.5 153.206 364.646 153.124 364.787C152.597 365.713 151.788 366.176 150.698 366.176C150.042 366.176 149.444 365.977 148.905 365.578C147.956 364.887 147.481 363.814 147.481 362.361C147.481 361.189 147.786 360.217 148.396 359.443C149.099 358.588 150.007 358.16 151.12 358.16C151.952 358.16 152.667 358.418 153.265 358.934V355.031H151.665V354.574H155.497V365.525H156.306C156.388 365.525 156.458 365.531 156.517 365.543C156.657 365.578 156.728 365.73 156.728 366H153.581ZM149.89 362.15C149.89 362.596 149.919 363 149.978 363.363C150.177 364.699 150.687 365.367 151.507 365.367C151.753 365.367 151.981 365.303 152.192 365.174C152.931 364.693 153.3 363.574 153.3 361.816C153.3 361.418 153.276 361.043 153.229 360.691C153.03 359.391 152.509 358.74 151.665 358.74C151.431 358.74 151.208 358.799 150.997 358.916C150.259 359.361 149.89 360.439 149.89 362.15ZM166.026 366.176C164.972 366.164 164.134 365.695 163.513 364.77L163.372 366H160.683V365.525C160.835 365.525 160.976 365.514 161.104 365.49C161.491 365.408 161.685 365.115 161.685 364.611V355.049H160.683V354.574H163.917V359.971C164.526 358.787 165.435 358.189 166.642 358.178C167.239 358.178 167.784 358.348 168.276 358.688C169.226 359.355 169.7 360.451 169.7 361.975C169.7 363.146 169.396 364.113 168.786 364.875C168.095 365.742 167.175 366.176 166.026 366.176ZM165.78 359.021C165.476 359.021 165.194 359.121 164.937 359.32C164.257 359.871 163.917 360.949 163.917 362.555C163.917 363.176 163.981 363.721 164.11 364.189C164.38 365.197 164.896 365.701 165.657 365.701C166.735 365.689 167.28 364.529 167.292 362.221C167.292 360.111 166.788 359.045 165.78 359.021ZM172.478 368.812C172.595 368.812 172.718 368.789 172.847 368.742C173.362 368.555 173.901 367.764 174.464 366.369L171.036 358.881H170.298V358.441H174.429V358.881H173.356L175.483 363.785L177.399 358.881H176.081V358.441H178.806C178.806 358.5 178.8 358.559 178.788 358.617C178.765 358.793 178.624 358.881 178.366 358.881C178.179 358.904 177.985 359.074 177.786 359.391L175.149 366.229C174.927 366.814 174.692 367.312 174.446 367.723C173.802 368.859 172.987 369.428 172.003 369.428C171.569 369.428 171.188 369.34 170.86 369.164C170.392 368.918 170.157 368.602 170.157 368.215C170.157 368.133 170.169 368.045 170.192 367.951C170.31 367.588 170.579 367.406 171.001 367.406C171.2 367.406 171.376 367.459 171.528 367.564C171.657 367.67 171.804 367.928 171.968 368.338C172.097 368.654 172.267 368.812 172.478 368.812ZM190.267 355.928V355.453H193.817V355.928H192.411V365.912L191.409 366.088L184.642 358.195V365.525H185.661C185.907 365.549 186.065 365.707 186.136 366H182.497V365.525H183.903V355.928H182.497V355.453H185.468L191.673 362.73V355.928H190.267ZM194.661 362.027H198.212V362.713H194.661V362.027ZM204.751 366H199.478V365.525H200.884V355.928H199.478V355.453H204.751V355.928H203.345V360.305H207.81V355.928H206.403V355.453H211.677V355.928H210.271V365.525H211.202C211.448 365.549 211.606 365.707 211.677 366H206.403V365.525H207.81V360.832H203.345V365.525H204.276C204.522 365.549 204.681 365.707 204.751 366ZM218.849 366.176C217.911 366.117 217.319 365.584 217.073 364.576C217.015 364.74 216.938 364.898 216.845 365.051C216.376 365.801 215.644 366.176 214.647 366.176C214.319 366.176 214.021 366.135 213.751 366.053C212.837 365.76 212.38 365.092 212.38 364.049C212.392 362.514 213.903 361.717 216.915 361.658V360.516C216.915 360.176 216.892 359.883 216.845 359.637C216.728 358.969 216.394 358.635 215.843 358.635C215.679 358.635 215.532 358.664 215.403 358.723C215.204 358.84 215.04 359.133 214.911 359.602C214.864 359.766 214.829 359.883 214.806 359.953C214.63 360.445 214.29 360.691 213.786 360.691C213.669 360.691 213.558 360.674 213.452 360.639C213.019 360.521 212.802 360.234 212.802 359.777C212.802 359.578 212.854 359.391 212.96 359.215C213.37 358.523 214.372 358.178 215.966 358.178C216.376 358.178 216.757 358.219 217.108 358.301C218.468 358.641 219.147 359.543 219.147 361.008V364.682C219.147 365.244 219.276 365.537 219.534 365.561C219.874 365.549 220.079 365.139 220.149 364.33L220.606 364.348C220.571 364.711 220.519 365.01 220.448 365.244C220.237 365.865 219.704 366.176 218.849 366.176ZM215.562 365.42C215.644 365.42 215.737 365.402 215.843 365.367C216.335 365.18 216.692 364.676 216.915 363.855V362.15C216.388 362.174 215.954 362.238 215.614 362.344C214.981 362.578 214.665 363.082 214.665 363.855C214.677 364.875 214.976 365.396 215.562 365.42ZM224.737 365.543C224.808 365.543 224.872 365.549 224.931 365.561C225.083 365.584 225.159 365.73 225.159 366H221.046V365.543C221.14 365.543 221.228 365.537 221.31 365.525C221.813 365.467 222.065 365.168 222.065 364.629V358.898H221.046V358.441H224.175L224.263 359.812C224.368 359.602 224.509 359.396 224.685 359.197C225.282 358.518 226.009 358.178 226.864 358.178C227.169 358.178 227.462 358.225 227.743 358.318C228.774 358.682 229.29 359.59 229.29 361.043V365.543H229.87C229.94 365.543 230.011 365.549 230.081 365.561C230.233 365.584 230.31 365.73 230.31 366H226.249V365.543C226.413 365.543 226.554 365.525 226.671 365.49C226.929 365.408 227.058 365.121 227.058 364.629V360.744C227.058 360.58 227.046 360.422 227.022 360.27C226.905 359.484 226.513 359.092 225.845 359.092C225.669 359.092 225.499 359.133 225.335 359.215C224.737 359.508 224.397 360.117 224.315 361.043L224.298 365.543H224.737ZM234.019 365.684C234.804 365.684 235.255 365.402 235.372 364.84C235.384 364.758 235.39 364.682 235.39 364.611C235.39 364.014 235.015 363.516 234.265 363.117C234.101 363.023 233.837 362.9 233.474 362.748C232.595 362.361 232.015 362.004 231.733 361.676C231.429 361.324 231.276 360.908 231.276 360.428C231.276 359.432 231.821 358.758 232.911 358.406C233.368 358.254 233.878 358.178 234.44 358.178C235.354 358.178 236.069 358.342 236.585 358.67C236.585 358.318 236.69 358.125 236.901 358.09C236.948 358.078 236.995 358.072 237.042 358.072V360.27H236.479C236.433 359.203 235.853 358.664 234.739 358.652C233.989 358.652 233.526 358.898 233.351 359.391C233.315 359.508 233.298 359.625 233.298 359.742C233.298 360.246 233.649 360.674 234.353 361.025C234.493 361.107 234.728 361.219 235.056 361.359C235.97 361.77 236.579 362.145 236.884 362.484C237.235 362.883 237.411 363.357 237.411 363.908C237.411 364.928 236.884 365.613 235.829 365.965C235.396 366.105 234.909 366.176 234.37 366.176C233.339 366.176 232.472 365.994 231.769 365.631C231.769 365.936 231.692 366.111 231.54 366.158C231.47 366.17 231.388 366.176 231.294 366.176V363.504H231.892C231.915 364.945 232.624 365.672 234.019 365.684ZM252.739 366H248.028V365.525H249.276L247.958 362.15H244.46L243.194 365.525H244.179C244.249 365.525 244.313 365.531 244.372 365.543C244.524 365.566 244.601 365.719 244.601 366H241.366V365.525H242.491L246.341 355.453H247.642L251.79 365.525H252.317C252.388 365.525 252.452 365.531 252.511 365.543C252.663 365.566 252.739 365.719 252.739 366ZM247.747 361.623L246.183 357.58L244.671 361.623H247.747ZM258.364 366H253.091V365.525H254.497V355.928H253.091V355.453H258.364V355.928H256.958V365.525H257.89C258.136 365.549 258.294 365.707 258.364 366Z" fill="black"/>
<mask id="path-5-inside-1_1_142" fill="white">
<path d="M0 374H350V450H0V374Z"/>
</mask>
<path d="M0 374V375H350V374V373H0V374Z" fill="#A4A4A4" mask="url(#path-5-inside-1_1_142)"/>
<rect x="13.5" y="389.5" width="269" height="45" rx="22.5" fill="white" stroke="#93BFEB"/>
<ellipse cx="313.108" cy="411.8" rx="23.1081" ry="22.8" fill="#93BFEB"/>
<g clip-path="url(#clip1_1_142)">
<path d="M322.348 401.262C322.822 401.591 323.07 402.158 322.981 402.725L319.981 422.225C319.911 422.68 319.634 423.078 319.231 423.303C318.828 423.528 318.345 423.556 317.919 423.378L312.312 421.048L309.101 424.522C308.684 424.976 308.028 425.126 307.451 424.901C306.875 424.676 306.5 424.119 306.5 423.5V419.581C306.5 419.394 306.57 419.216 306.697 419.075L314.553 410.506C314.825 410.211 314.816 409.756 314.534 409.475C314.253 409.194 313.798 409.175 313.503 409.442L303.969 417.912L299.83 415.841C299.333 415.592 299.014 415.095 299 414.542C298.986 413.989 299.276 413.473 299.755 413.197L320.755 401.197C321.256 400.911 321.875 400.939 322.348 401.262Z" fill="white"/>
</g>
<path d="M30.688 407.8H39.088V408.92H35.536V419H34.256V408.92H30.688V407.8ZM46.4216 411H47.6696L43.0936 422.2H41.9416L43.3016 418.888L40.0696 411H41.3816L43.9416 417.464L46.4216 411ZM50.2728 417.384L50.4008 417.368V422.2H49.2008V411H50.3048L50.3848 412.488C50.6301 412.04 50.9928 411.661 51.4728 411.352C51.9528 411.043 52.5554 410.888 53.2808 410.888C53.9741 410.888 54.5981 411.059 55.1528 411.4C55.7074 411.731 56.1448 412.205 56.4648 412.824C56.7848 413.432 56.9448 414.157 56.9448 415C56.9448 415.832 56.7901 416.557 56.4808 417.176C56.1821 417.784 55.7554 418.259 55.2008 418.6C54.6568 418.941 54.0168 419.112 53.2808 419.112C52.5128 419.112 51.8781 418.947 51.3768 418.616C50.8754 418.285 50.5074 417.875 50.2728 417.384ZM55.6488 415C55.6488 414.083 55.4088 413.357 54.9288 412.824C54.4594 412.28 53.8248 412.008 53.0248 412.008C52.5234 412.008 52.0701 412.125 51.6648 412.36C51.2701 412.595 50.9608 412.936 50.7368 413.384C50.5128 413.832 50.4008 414.371 50.4008 415C50.4008 415.619 50.5128 416.152 50.7368 416.6C50.9608 417.048 51.2701 417.395 51.6648 417.64C52.0701 417.875 52.5234 417.992 53.0248 417.992C53.8248 417.992 54.4594 417.725 54.9288 417.192C55.4088 416.648 55.6488 415.917 55.6488 415ZM62.2639 419.112C61.5172 419.112 60.8505 418.931 60.2639 418.568C59.6879 418.205 59.2345 417.709 58.9039 417.08C58.5732 416.451 58.4079 415.731 58.4079 414.92C58.4079 414.141 58.5732 413.448 58.9039 412.84C59.2345 412.232 59.6879 411.757 60.2639 411.416C60.8399 411.064 61.4959 410.888 62.2319 410.888C62.9572 410.888 63.6025 411.048 64.1679 411.368C64.7439 411.688 65.1919 412.131 65.5119 412.696C65.8319 413.261 65.9812 413.907 65.9599 414.632C65.9599 414.749 65.9545 414.872 65.9439 415C65.9332 415.128 65.9225 415.267 65.9119 415.416H59.7199C59.7412 415.917 59.8639 416.36 60.0879 416.744C60.3119 417.128 60.6052 417.432 60.9679 417.656C61.3412 417.869 61.7625 417.976 62.2319 417.976C62.8505 417.976 63.3732 417.859 63.7999 417.624C64.2372 417.389 64.5519 417.053 64.7439 416.616L65.7839 417.032C65.4639 417.704 64.9999 418.221 64.3919 418.584C63.7839 418.936 63.0745 419.112 62.2639 419.112ZM64.6479 414.376C64.6585 413.917 64.5572 413.512 64.3439 413.16C64.1412 412.808 63.8532 412.531 63.4799 412.328C63.1065 412.125 62.6745 412.024 62.1839 412.024C61.7572 412.024 61.3679 412.125 61.0159 412.328C60.6639 412.531 60.3705 412.813 60.1359 413.176C59.9119 413.528 59.7785 413.928 59.7359 414.376H64.6479ZM77.8435 411H79.0915L74.5155 422.2H73.3635L74.7235 418.888L71.4915 411H72.8035L75.3635 417.464L77.8435 411ZM84.0786 419.112C83.3213 419.112 82.644 418.947 82.0466 418.616C81.4493 418.285 80.98 417.816 80.6386 417.208C80.2973 416.589 80.1266 415.859 80.1266 415.016C80.1266 414.163 80.2973 413.427 80.6386 412.808C80.9906 412.189 81.4653 411.715 82.0626 411.384C82.6706 411.053 83.3533 410.888 84.1106 410.888C84.868 410.888 85.5453 411.053 86.1426 411.384C86.7506 411.715 87.2253 412.189 87.5666 412.808C87.9186 413.416 88.0946 414.141 88.0946 414.984C88.0946 415.837 87.9186 416.573 87.5666 417.192C87.2146 417.811 86.7346 418.285 86.1266 418.616C85.5186 418.947 84.836 419.112 84.0786 419.112ZM84.0626 417.976C84.532 417.976 84.9746 417.875 85.3906 417.672C85.8066 417.459 86.1426 417.133 86.3986 416.696C86.6653 416.248 86.7986 415.683 86.7986 415C86.7986 414.307 86.6706 413.741 86.4146 413.304C86.1586 412.867 85.8226 412.547 85.4066 412.344C85.0013 412.131 84.564 412.024 84.0946 412.024C83.6253 412.024 83.188 412.131 82.7826 412.344C82.3773 412.547 82.0466 412.872 81.7906 413.32C81.5453 413.757 81.4226 414.317 81.4226 415C81.4226 415.693 81.5453 416.259 81.7906 416.696C82.036 417.133 82.356 417.459 82.7506 417.672C83.156 417.875 83.5933 417.976 84.0626 417.976ZM96.6041 419H95.5161L95.4361 417.848C95.1908 418.253 94.8601 418.568 94.4441 418.792C94.0281 419.005 93.5428 419.112 92.9881 419.112C92.3695 419.112 91.8308 418.984 91.3721 418.728C90.9135 418.472 90.5561 418.088 90.3001 417.576C90.0548 417.064 89.9321 416.419 89.9321 415.64V411H91.1161V415.512C91.1161 416.333 91.2921 416.957 91.6441 417.384C92.0068 417.8 92.5241 418.008 93.1961 418.008C93.8788 418.008 94.4175 417.789 94.8121 417.352C95.2175 416.904 95.4201 416.232 95.4201 415.336V411H96.6041V419ZM99.0445 411H100.149L100.213 412.168C100.426 411.88 100.682 411.635 100.981 411.432C101.29 411.229 101.626 411.091 101.989 411.016C102.362 410.931 102.757 410.925 103.173 411V412.2C102.725 412.115 102.319 412.115 101.957 412.2C101.605 412.285 101.301 412.445 101.045 412.68C100.789 412.915 100.591 413.213 100.453 413.576C100.314 413.928 100.245 414.339 100.245 414.808V419H99.0445V411ZM115.471 417.384C115.225 417.875 114.852 418.285 114.351 418.616C113.849 418.947 113.22 419.112 112.463 419.112C111.727 419.112 111.081 418.941 110.527 418.6C109.983 418.259 109.556 417.784 109.247 417.176C108.948 416.557 108.799 415.832 108.799 415C108.799 414.157 108.948 413.432 109.247 412.824C109.556 412.205 109.983 411.731 110.527 411.4C111.081 411.059 111.727 410.888 112.463 410.888C113.177 410.888 113.775 411.043 114.255 411.352C114.745 411.661 115.113 412.04 115.359 412.488L115.439 411H116.543V422.2H115.343V417.368L115.471 417.384ZM110.095 415C110.095 415.917 110.329 416.648 110.799 417.192C111.279 417.725 111.919 417.992 112.719 417.992C113.22 417.992 113.668 417.875 114.063 417.64C114.457 417.395 114.767 417.048 114.991 416.6C115.225 416.152 115.343 415.619 115.343 415C115.343 414.371 115.225 413.832 114.991 413.384C114.767 412.936 114.457 412.595 114.063 412.36C113.668 412.125 113.22 412.008 112.719 412.008C111.908 412.008 111.268 412.28 110.799 412.824C110.329 413.357 110.095 414.083 110.095 415ZM125.542 419H124.454L124.374 417.848C124.128 418.253 123.798 418.568 123.382 418.792C122.966 419.005 122.48 419.112 121.926 419.112C121.307 419.112 120.768 418.984 120.31 418.728C119.851 418.472 119.494 418.088 119.238 417.576C118.992 417.064 118.87 416.419 118.87 415.64V411H120.054V415.512C120.054 416.333 120.23 416.957 120.582 417.384C120.944 417.8 121.462 418.008 122.134 418.008C122.816 418.008 123.355 417.789 123.75 417.352C124.155 416.904 124.358 416.232 124.358 415.336V411H125.542V419ZM131.342 419.112C130.595 419.112 129.929 418.931 129.342 418.568C128.766 418.205 128.313 417.709 127.982 417.08C127.651 416.451 127.486 415.731 127.486 414.92C127.486 414.141 127.651 413.448 127.982 412.84C128.313 412.232 128.766 411.757 129.342 411.416C129.918 411.064 130.574 410.888 131.31 410.888C132.035 410.888 132.681 411.048 133.246 411.368C133.822 411.688 134.27 412.131 134.59 412.696C134.91 413.261 135.059 413.907 135.038 414.632C135.038 414.749 135.033 414.872 135.022 415C135.011 415.128 135.001 415.267 134.99 415.416H128.798C128.819 415.917 128.942 416.36 129.166 416.744C129.39 417.128 129.683 417.432 130.046 417.656C130.419 417.869 130.841 417.976 131.31 417.976C131.929 417.976 132.451 417.859 132.878 417.624C133.315 417.389 133.63 417.053 133.822 416.616L134.862 417.032C134.542 417.704 134.078 418.221 133.47 418.584C132.862 418.936 132.153 419.112 131.342 419.112ZM133.726 414.376C133.737 413.917 133.635 413.512 133.422 413.16C133.219 412.808 132.931 412.531 132.558 412.328C132.185 412.125 131.753 412.024 131.262 412.024C130.835 412.024 130.446 412.125 130.094 412.328C129.742 412.531 129.449 412.813 129.214 413.176C128.99 413.528 128.857 413.928 128.814 414.376H133.726ZM137.669 416.552C137.733 416.872 137.851 417.139 138.021 417.352C138.192 417.555 138.411 417.709 138.677 417.816C138.955 417.923 139.275 417.976 139.637 417.976C140.203 417.976 140.629 417.869 140.917 417.656C141.216 417.432 141.365 417.155 141.365 416.824C141.365 416.547 141.275 416.323 141.093 416.152C140.923 415.981 140.693 415.843 140.405 415.736C140.117 415.619 139.797 415.517 139.445 415.432C139.168 415.368 138.869 415.293 138.549 415.208C138.229 415.112 137.925 414.984 137.637 414.824C137.349 414.664 137.115 414.456 136.933 414.2C136.752 413.944 136.661 413.608 136.661 413.192C136.661 412.733 136.784 412.333 137.029 411.992C137.285 411.64 137.632 411.368 138.069 411.176C138.517 410.984 139.029 410.888 139.605 410.888C140.267 410.888 140.853 411.032 141.365 411.32C141.888 411.608 142.251 412.056 142.453 412.664L141.333 413.048C141.259 412.771 141.12 412.557 140.917 412.408C140.725 412.259 140.507 412.157 140.261 412.104C140.027 412.051 139.792 412.024 139.557 412.024C139.077 412.024 138.688 412.12 138.389 412.312C138.101 412.493 137.957 412.771 137.957 413.144C137.957 413.347 138.005 413.517 138.101 413.656C138.197 413.784 138.331 413.891 138.501 413.976C138.672 414.061 138.875 414.136 139.109 414.2C139.344 414.253 139.6 414.317 139.877 414.392C140.187 414.467 140.501 414.563 140.821 414.68C141.141 414.787 141.44 414.931 141.717 415.112C141.995 415.283 142.219 415.507 142.389 415.784C142.571 416.051 142.661 416.387 142.661 416.792C142.661 417.261 142.533 417.672 142.277 418.024C142.021 418.365 141.664 418.632 141.205 418.824C140.757 419.016 140.235 419.112 139.637 419.112C138.816 419.112 138.133 418.931 137.589 418.568C137.056 418.195 136.699 417.651 136.517 416.936L137.669 416.552ZM145.119 411V408.76H146.319V411H148.447V412.12H146.319V416.424C146.319 416.915 146.42 417.272 146.623 417.496C146.836 417.72 147.103 417.853 147.423 417.896C147.754 417.939 148.095 417.939 148.447 417.896V418.936C148.031 419.032 147.62 419.059 147.215 419.016C146.82 418.973 146.463 418.856 146.143 418.664C145.834 418.461 145.583 418.179 145.391 417.816C145.21 417.453 145.119 416.989 145.119 416.424V412.12H143.919V411H145.119ZM150.472 411H151.656V419H150.472V411ZM151.08 409.4C150.835 409.4 150.632 409.32 150.472 409.16C150.312 409 150.232 408.803 150.232 408.568C150.232 408.323 150.312 408.12 150.472 407.96C150.632 407.8 150.835 407.72 151.08 407.72C151.304 407.72 151.496 407.8 151.656 407.96C151.827 408.12 151.912 408.323 151.912 408.568C151.912 408.803 151.827 409 151.656 409.16C151.496 409.32 151.304 409.4 151.08 409.4ZM157.813 419.112C157.056 419.112 156.378 418.947 155.781 418.616C155.184 418.285 154.714 417.816 154.373 417.208C154.032 416.589 153.861 415.859 153.861 415.016C153.861 414.163 154.032 413.427 154.373 412.808C154.725 412.189 155.2 411.715 155.797 411.384C156.405 411.053 157.088 410.888 157.845 410.888C158.602 410.888 159.28 411.053 159.877 411.384C160.485 411.715 160.96 412.189 161.301 412.808C161.653 413.416 161.829 414.141 161.829 414.984C161.829 415.837 161.653 416.573 161.301 417.192C160.949 417.811 160.469 418.285 159.861 418.616C159.253 418.947 158.57 419.112 157.813 419.112ZM157.797 417.976C158.266 417.976 158.709 417.875 159.125 417.672C159.541 417.459 159.877 417.133 160.133 416.696C160.4 416.248 160.533 415.683 160.533 415C160.533 414.307 160.405 413.741 160.149 413.304C159.893 412.867 159.557 412.547 159.141 412.344C158.736 412.131 158.298 412.024 157.829 412.024C157.36 412.024 156.922 412.131 156.517 412.344C156.112 412.547 155.781 412.872 155.525 413.32C155.28 413.757 155.157 414.317 155.157 415C155.157 415.693 155.28 416.259 155.525 416.696C155.77 417.133 156.09 417.459 156.485 417.672C156.89 417.875 157.328 417.976 157.797 417.976ZM163.795 411H164.899L164.963 412.136C165.219 411.741 165.555 411.437 165.971 411.224C166.387 411 166.872 410.888 167.427 410.888C168.035 410.888 168.568 411.021 169.027 411.288C169.485 411.544 169.843 411.933 170.099 412.456C170.355 412.968 170.483 413.613 170.483 414.392V419H169.283V414.536C169.283 413.704 169.101 413.075 168.739 412.648C168.387 412.211 167.875 411.992 167.203 411.992C166.509 411.992 165.965 412.221 165.571 412.68C165.187 413.139 164.995 413.816 164.995 414.712V419H163.795V411ZM177.295 407.48H178.495V412.088C178.751 411.704 179.097 411.411 179.535 411.208C179.972 410.995 180.463 410.888 181.007 410.888C181.593 410.888 182.116 411.021 182.575 411.288C183.033 411.555 183.391 411.949 183.647 412.472C183.913 412.995 184.047 413.645 184.047 414.424V419H182.767V414.568C182.767 413.736 182.591 413.101 182.239 412.664C181.887 412.216 181.375 411.992 180.703 411.992C180.009 411.992 179.465 412.227 179.071 412.696C178.687 413.165 178.495 413.848 178.495 414.744V419H177.295V407.48ZM189.733 419.112C188.986 419.112 188.319 418.931 187.733 418.568C187.157 418.205 186.703 417.709 186.373 417.08C186.042 416.451 185.877 415.731 185.877 414.92C185.877 414.141 186.042 413.448 186.373 412.84C186.703 412.232 187.157 411.757 187.733 411.416C188.309 411.064 188.965 410.888 189.701 410.888C190.426 410.888 191.071 411.048 191.637 411.368C192.213 411.688 192.661 412.131 192.981 412.696C193.301 413.261 193.45 413.907 193.429 414.632C193.429 414.749 193.423 414.872 193.413 415C193.402 415.128 193.391 415.267 193.381 415.416H187.189C187.21 415.917 187.333 416.36 187.557 416.744C187.781 417.128 188.074 417.432 188.437 417.656C188.81 417.869 189.231 417.976 189.701 417.976C190.319 417.976 190.842 417.859 191.269 417.624C191.706 417.389 192.021 417.053 192.213 416.616L193.253 417.032C192.933 417.704 192.469 418.221 191.861 418.584C191.253 418.936 190.543 419.112 189.733 419.112ZM192.117 414.376C192.127 413.917 192.026 413.512 191.813 413.16C191.61 412.808 191.322 412.531 190.949 412.328C190.575 412.125 190.143 412.024 189.653 412.024C189.226 412.024 188.837 412.125 188.485 412.328C188.133 412.531 187.839 412.813 187.605 413.176C187.381 413.528 187.247 413.928 187.205 414.376H192.117ZM195.404 411H196.508L196.572 412.168C196.785 411.88 197.041 411.635 197.34 411.432C197.649 411.229 197.985 411.091 198.348 411.016C198.721 410.931 199.116 410.925 199.532 411V412.2C199.084 412.115 198.679 412.115 198.316 412.2C197.964 412.285 197.66 412.445 197.404 412.68C197.148 412.915 196.951 413.213 196.812 413.576C196.673 413.928 196.604 414.339 196.604 414.808V419H195.404V411ZM204.53 419.112C203.783 419.112 203.116 418.931 202.53 418.568C201.954 418.205 201.5 417.709 201.17 417.08C200.839 416.451 200.674 415.731 200.674 414.92C200.674 414.141 200.839 413.448 201.17 412.84C201.5 412.232 201.954 411.757 202.53 411.416C203.106 411.064 203.762 410.888 204.498 410.888C205.223 410.888 205.868 411.048 206.434 411.368C207.01 411.688 207.458 412.131 207.778 412.696C208.098 413.261 208.247 413.907 208.226 414.632C208.226 414.749 208.22 414.872 208.21 415C208.199 415.128 208.188 415.267 208.178 415.416H201.986C202.007 415.917 202.13 416.36 202.354 416.744C202.578 417.128 202.871 417.432 203.234 417.656C203.607 417.869 204.028 417.976 204.498 417.976C205.116 417.976 205.639 417.859 206.066 417.624C206.503 417.389 206.818 417.053 207.01 416.616L208.05 417.032C207.73 417.704 207.266 418.221 206.658 418.584C206.05 418.936 205.34 419.112 204.53 419.112ZM206.914 414.376C206.924 413.917 206.823 413.512 206.61 413.16C206.407 412.808 206.119 412.531 205.746 412.328C205.372 412.125 204.94 412.024 204.45 412.024C204.023 412.024 203.634 412.125 203.282 412.328C202.93 412.531 202.636 412.813 202.402 413.176C202.178 413.528 202.044 413.928 202.002 414.376H206.914ZM210.857 419.08C210.611 419.08 210.403 418.995 210.233 418.824C210.073 418.653 209.993 418.445 209.993 418.2C209.993 417.955 210.073 417.747 210.233 417.576C210.403 417.405 210.611 417.32 210.857 417.32C211.091 417.32 211.294 417.405 211.465 417.576C211.635 417.747 211.721 417.955 211.721 418.2C211.721 418.445 211.635 418.653 211.465 418.824C211.294 418.995 211.091 419.08 210.857 419.08ZM214.622 419.08C214.377 419.08 214.169 418.995 213.998 418.824C213.838 418.653 213.758 418.445 213.758 418.2C213.758 417.955 213.838 417.747 213.998 417.576C214.169 417.405 214.377 417.32 214.622 417.32C214.857 417.32 215.06 417.405 215.23 417.576C215.401 417.747 215.486 417.955 215.486 418.2C215.486 418.445 215.401 418.653 215.23 418.824C215.06 418.995 214.857 419.08 214.622 419.08ZM218.388 419.08C218.143 419.08 217.935 418.995 217.764 418.824C217.604 418.653 217.524 418.445 217.524 418.2C217.524 417.955 217.604 417.747 217.764 417.576C217.935 417.405 218.143 417.32 218.388 417.32C218.623 417.32 218.825 417.405 218.996 417.576C219.167 417.747 219.252 417.955 219.252 418.2C219.252 418.445 219.167 418.653 218.996 418.824C218.825 418.995 218.623 419.08 218.388 419.08Z" fill="#666666"/>
<path d="M13 114C13 104.059 21.0589 96 31 96H269C278.941 96 287 104.059 287 114V148C287 157.941 278.941 166 269 166H21C16.5817 166 13 162.418 13 158V114Z" fill="#F1F0F0"/>
<path d="M26.03 113.4H27.47V118.962H34.22V113.4H35.66V126H34.22V120.222H27.47V126H26.03V113.4ZM42.3574 126.126C41.5174 126.126 40.7674 125.922 40.1074 125.514C39.4594 125.106 38.9494 124.548 38.5774 123.84C38.2054 123.132 38.0194 122.322 38.0194 121.41C38.0194 120.534 38.2054 119.754 38.5774 119.07C38.9494 118.386 39.4594 117.852 40.1074 117.468C40.7554 117.072 41.4934 116.874 42.3214 116.874C43.1374 116.874 43.8634 117.054 44.4994 117.414C45.1474 117.774 45.6514 118.272 46.0114 118.908C46.3714 119.544 46.5394 120.27 46.5154 121.086C46.5154 121.218 46.5094 121.356 46.4974 121.5C46.4854 121.644 46.4734 121.8 46.4614 121.968H39.4954C39.5194 122.532 39.6574 123.03 39.9094 123.462C40.1614 123.894 40.4914 124.236 40.8994 124.488C41.3194 124.728 41.7934 124.848 42.3214 124.848C43.0174 124.848 43.6054 124.716 44.0854 124.452C44.5774 124.188 44.9314 123.81 45.1474 123.318L46.3174 123.786C45.9574 124.542 45.4354 125.124 44.7514 125.532C44.0674 125.928 43.2694 126.126 42.3574 126.126ZM45.0394 120.798C45.0514 120.282 44.9374 119.826 44.6974 119.43C44.4694 119.034 44.1454 118.722 43.7254 118.494C43.3054 118.266 42.8194 118.152 42.2674 118.152C41.7874 118.152 41.3494 118.266 40.9534 118.494C40.5574 118.722 40.2274 119.04 39.9634 119.448C39.7114 119.844 39.5614 120.294 39.5134 120.798H45.0394ZM48.7376 113.04H50.0876V126H48.7376V113.04ZM52.8333 113.04H54.1833V126H52.8333V113.04ZM60.817 126.126C59.965 126.126 59.203 125.94 58.531 125.568C57.859 125.196 57.331 124.668 56.947 123.984C56.563 123.288 56.371 122.466 56.371 121.518C56.371 120.558 56.563 119.73 56.947 119.034C57.343 118.338 57.877 117.804 58.549 117.432C59.233 117.06 60.001 116.874 60.853 116.874C61.705 116.874 62.467 117.06 63.139 117.432C63.823 117.804 64.357 118.338 64.741 119.034C65.137 119.718 65.335 120.534 65.335 121.482C65.335 122.442 65.137 123.27 64.741 123.966C64.345 124.662 63.805 125.196 63.121 125.568C62.437 125.94 61.669 126.126 60.817 126.126ZM60.799 124.848C61.327 124.848 61.825 124.734 62.293 124.506C62.761 124.266 63.139 123.9 63.427 123.408C63.727 122.904 63.877 122.268 63.877 121.5C63.877 120.72 63.733 120.084 63.445 119.592C63.157 119.1 62.779 118.74 62.311 118.512C61.855 118.272 61.363 118.152 60.835 118.152C60.307 118.152 59.815 118.272 59.359 118.512C58.903 118.74 58.531 119.106 58.243 119.61C57.967 120.102 57.829 120.732 57.829 121.5C57.829 122.28 57.967 122.916 58.243 123.408C58.519 123.9 58.879 124.266 59.323 124.506C59.779 124.734 60.271 124.848 60.799 124.848ZM67.6902 113.4H69.2202L69.0582 122.562H67.8522L67.6902 113.4ZM68.5182 126.072C68.2302 126.072 67.9962 125.976 67.8162 125.784C67.6362 125.592 67.5462 125.358 67.5462 125.082C67.5462 124.806 67.6362 124.572 67.8162 124.38C67.9962 124.188 68.2302 124.092 68.5182 124.092C68.7822 124.092 69.0102 124.188 69.2022 124.38C69.3942 124.572 69.4902 124.806 69.4902 125.082C69.4902 125.358 69.3942 125.592 69.2022 125.784C69.0102 125.976 68.7822 126.072 68.5182 126.072ZM77.4284 113.4H78.8684V126H77.4284V113.4ZM81.3884 113.4H82.8104L82.5944 116.82H81.6044L81.3884 113.4ZM85.2122 117H86.4542L86.5442 118.296C86.8082 117.864 87.1622 117.522 87.6062 117.27C88.0622 117.006 88.6022 116.874 89.2262 116.874C89.8622 116.874 90.4382 117.03 90.9542 117.342C91.4822 117.642 91.8902 118.092 92.1782 118.692C92.4542 118.08 92.8742 117.624 93.4382 117.324C94.0022 117.024 94.6262 116.874 95.3102 116.874C95.9822 116.874 96.5762 117.024 97.0922 117.324C97.6082 117.612 98.0102 118.05 98.2982 118.638C98.5862 119.214 98.7302 119.94 98.7302 120.816V126H97.3802V120.978C97.3802 120.042 97.1762 119.334 96.7682 118.854C96.3722 118.362 95.8022 118.116 95.0582 118.116C94.3022 118.116 93.7022 118.38 93.2582 118.908C92.8142 119.424 92.5922 120.192 92.5922 121.212V126H91.2422V120.978C91.2422 120.042 91.0502 119.334 90.6662 118.854C90.2822 118.362 89.7182 118.116 88.9742 118.116C88.2182 118.116 87.6242 118.38 87.1922 118.908C86.7722 119.424 86.5622 120.192 86.5622 121.212V126H85.2122V117ZM106.97 117V114.48H108.32V117H110.714V118.26H108.32V123.102C108.32 123.654 108.434 124.056 108.662 124.308C108.902 124.56 109.202 124.71 109.562 124.758C109.934 124.806 110.318 124.806 110.714 124.758V125.928C110.246 126.036 109.784 126.066 109.328 126.018C108.884 125.97 108.482 125.838 108.122 125.622C107.774 125.394 107.492 125.076 107.276 124.668C107.072 124.26 106.97 123.738 106.97 123.102V118.26H105.62V117H106.97ZM112.722 113.04H114.072V118.224C114.36 117.792 114.75 117.462 115.242 117.234C115.734 116.994 116.286 116.874 116.898 116.874C117.558 116.874 118.146 117.024 118.662 117.324C119.178 117.624 119.58 118.068 119.868 118.656C120.168 119.244 120.318 119.976 120.318 120.852V126H118.878V121.014C118.878 120.078 118.68 119.364 118.284 118.872C117.888 118.368 117.312 118.116 116.556 118.116C115.776 118.116 115.164 118.38 114.72 118.908C114.288 119.436 114.072 120.204 114.072 121.212V126H112.722V113.04ZM126.715 126.126C125.875 126.126 125.125 125.922 124.465 125.514C123.817 125.106 123.307 124.548 122.935 123.84C122.563 123.132 122.377 122.322 122.377 121.41C122.377 120.534 122.563 119.754 122.935 119.07C123.307 118.386 123.817 117.852 124.465 117.468C125.113 117.072 125.851 116.874 126.679 116.874C127.495 116.874 128.221 117.054 128.857 117.414C129.505 117.774 130.009 118.272 130.369 118.908C130.729 119.544 130.897 120.27 130.873 121.086C130.873 121.218 130.867 121.356 130.855 121.5C130.843 121.644 130.831 121.8 130.819 121.968H123.853C123.877 122.532 124.015 123.03 124.267 123.462C124.519 123.894 124.849 124.236 125.257 124.488C125.677 124.728 126.151 124.848 126.679 124.848C127.375 124.848 127.963 124.716 128.443 124.452C128.935 124.188 129.289 123.81 129.505 123.318L130.675 123.786C130.315 124.542 129.793 125.124 129.109 125.532C128.425 125.928 127.627 126.126 126.715 126.126ZM129.397 120.798C129.409 120.282 129.295 119.826 129.055 119.43C128.827 119.034 128.503 118.722 128.083 118.494C127.663 118.266 127.177 118.152 126.625 118.152C126.145 118.152 125.707 118.266 125.311 118.494C124.915 118.722 124.585 119.04 124.321 119.448C124.069 119.844 123.919 120.294 123.871 120.798H129.397ZM138.212 113.4H139.652V121.356C139.652 122.184 139.802 122.856 140.102 123.372C140.402 123.888 140.804 124.266 141.308 124.506C141.824 124.746 142.406 124.866 143.054 124.866C143.69 124.866 144.26 124.746 144.764 124.506C145.268 124.266 145.67 123.888 145.97 123.372C146.27 122.856 146.42 122.184 146.42 121.356V113.4H147.86V121.338C147.86 122.166 147.728 122.88 147.464 123.48C147.212 124.08 146.858 124.578 146.402 124.974C145.946 125.358 145.43 125.646 144.854 125.838C144.278 126.03 143.672 126.126 143.036 126.126C142.172 126.126 141.374 125.958 140.642 125.622C139.91 125.274 139.322 124.746 138.878 124.038C138.434 123.33 138.212 122.43 138.212 121.338V113.4ZM155.281 119.592C155.953 119.592 156.499 119.49 156.919 119.286C157.339 119.082 157.645 118.794 157.837 118.422C158.041 118.05 158.143 117.618 158.143 117.126C158.143 116.346 157.915 115.74 157.459 115.308C157.015 114.876 156.289 114.66 155.281 114.66H152.275V119.592H155.281ZM159.565 117.126C159.565 117.618 159.481 118.092 159.313 118.548C159.157 118.992 158.905 119.388 158.557 119.736C158.209 120.084 157.765 120.36 157.225 120.564C156.685 120.756 156.037 120.852 155.281 120.852H152.275V126H150.835V113.4H155.281C156.265 113.4 157.069 113.568 157.693 113.904C158.329 114.24 158.797 114.69 159.097 115.254C159.409 115.818 159.565 116.442 159.565 117.126ZM161.478 120.384H168.57V121.608H161.478V120.384ZM176.085 114.66H175.491L171.333 126H169.875L174.483 113.4H177.075L181.665 126H180.207L176.085 114.66ZM172.125 121.428H179.469V122.688H172.125V121.428ZM183.337 113.4H184.777V126H183.337V113.4ZM197.724 114.66H197.13L192.972 126H191.514L196.122 113.4H198.714L203.304 126H201.846L197.724 114.66ZM193.764 121.428H201.108V122.688H193.764V121.428ZM205.569 123.246C205.641 123.606 205.773 123.906 205.965 124.146C206.157 124.374 206.403 124.548 206.703 124.668C207.015 124.788 207.375 124.848 207.783 124.848C208.419 124.848 208.899 124.728 209.223 124.488C209.559 124.236 209.727 123.924 209.727 123.552C209.727 123.24 209.625 122.988 209.421 122.796C209.229 122.604 208.971 122.448 208.647 122.328C208.323 122.196 207.963 122.082 207.567 121.986C207.255 121.914 206.919 121.83 206.559 121.734C206.199 121.626 205.857 121.482 205.533 121.302C205.209 121.122 204.945 120.888 204.741 120.6C204.537 120.312 204.435 119.934 204.435 119.466C204.435 118.95 204.573 118.5 204.849 118.116C205.137 117.72 205.527 117.414 206.019 117.198C206.523 116.982 207.099 116.874 207.747 116.874C208.491 116.874 209.151 117.036 209.727 117.36C210.315 117.684 210.723 118.188 210.951 118.872L209.691 119.304C209.607 118.992 209.451 118.752 209.223 118.584C209.007 118.416 208.761 118.302 208.485 118.242C208.221 118.182 207.957 118.152 207.693 118.152C207.153 118.152 206.715 118.26 206.379 118.476C206.055 118.68 205.893 118.992 205.893 119.412C205.893 119.64 205.947 119.832 206.055 119.988C206.163 120.132 206.313 120.252 206.505 120.348C206.697 120.444 206.925 120.528 207.189 120.6C207.453 120.66 207.741 120.732 208.053 120.816C208.401 120.9 208.755 121.008 209.115 121.14C209.475 121.26 209.811 121.422 210.123 121.626C210.435 121.818 210.687 122.07 210.879 122.382C211.083 122.682 211.185 123.06 211.185 123.516C211.185 124.044 211.041 124.506 210.753 124.902C210.465 125.286 210.063 125.586 209.547 125.802C209.043 126.018 208.455 126.126 207.783 126.126C206.859 126.126 206.091 125.922 205.479 125.514C204.879 125.094 204.477 124.482 204.273 123.678L205.569 123.246ZM214.112 123.246C214.184 123.606 214.316 123.906 214.508 124.146C214.7 124.374 214.946 124.548 215.246 124.668C215.558 124.788 215.918 124.848 216.326 124.848C216.962 124.848 217.442 124.728 217.766 124.488C218.102 124.236 218.27 123.924 218.27 123.552C218.27 123.24 218.168 122.988 217.964 122.796C217.772 122.604 217.514 122.448 217.19 122.328C216.866 122.196 216.506 122.082 216.11 121.986C215.798 121.914 215.462 121.83 215.102 121.734C214.742 121.626 214.4 121.482 214.076 121.302C213.752 121.122 213.488 120.888 213.284 120.6C213.08 120.312 212.978 119.934 212.978 119.466C212.978 118.95 213.116 118.5 213.392 118.116C213.68 117.72 214.07 117.414 214.562 117.198C215.066 116.982 215.642 116.874 216.29 116.874C217.034 116.874 217.694 117.036 218.27 117.36C218.858 117.684 219.266 118.188 219.494 118.872L218.234 119.304C218.15 118.992 217.994 118.752 217.766 118.584C217.55 118.416 217.304 118.302 217.028 118.242C216.764 118.182 216.5 118.152 216.236 118.152C215.696 118.152 215.258 118.26 214.922 118.476C214.598 118.68 214.436 118.992 214.436 119.412C214.436 119.64 214.49 119.832 214.598 119.988C214.706 120.132 214.856 120.252 215.048 120.348C215.24 120.444 215.468 120.528 215.732 120.6C215.996 120.66 216.284 120.732 216.596 120.816C216.944 120.9 217.298 121.008 217.658 121.14C218.018 121.26 218.354 121.422 218.666 121.626C218.978 121.818 219.23 122.07 219.422 122.382C219.626 122.682 219.728 123.06 219.728 123.516C219.728 124.044 219.584 124.506 219.296 124.902C219.008 125.286 218.606 125.586 218.09 125.802C217.586 126.018 216.998 126.126 216.326 126.126C215.402 126.126 214.634 125.922 214.022 125.514C213.422 125.094 213.02 124.482 212.816 123.678L214.112 123.246ZM222.187 117H223.519V126H222.187V117ZM222.871 115.2C222.595 115.2 222.367 115.11 222.187 114.93C222.007 114.75 221.917 114.528 221.917 114.264C221.917 113.988 222.007 113.76 222.187 113.58C222.367 113.4 222.595 113.31 222.871 113.31C223.123 113.31 223.339 113.4 223.519 113.58C223.711 113.76 223.807 113.988 223.807 114.264C223.807 114.528 223.711 114.75 223.519 114.93C223.339 115.11 223.123 115.2 222.871 115.2ZM227.296 123.246C227.368 123.606 227.5 123.906 227.692 124.146C227.884 124.374 228.13 124.548 228.43 124.668C228.742 124.788 229.102 124.848 229.51 124.848C230.146 124.848 230.626 124.728 230.95 124.488C231.286 124.236 231.454 123.924 231.454 123.552C231.454 123.24 231.352 122.988 231.148 122.796C230.956 122.604 230.698 122.448 230.374 122.328C230.05 122.196 229.69 122.082 229.294 121.986C228.982 121.914 228.646 121.83 228.286 121.734C227.926 121.626 227.584 121.482 227.26 121.302C226.936 121.122 226.672 120.888 226.468 120.6C226.264 120.312 226.162 119.934 226.162 119.466C226.162 118.95 226.3 118.5 226.576 118.116C226.864 117.72 227.254 117.414 227.746 117.198C228.25 116.982 228.826 116.874 229.474 116.874C230.218 116.874 230.878 117.036 231.454 117.36C232.042 117.684 232.45 118.188 232.678 118.872L231.418 119.304C231.334 118.992 231.178 118.752 230.95 118.584C230.734 118.416 230.488 118.302 230.212 118.242C229.948 118.182 229.684 118.152 229.42 118.152C228.88 118.152 228.442 118.26 228.106 118.476C227.782 118.68 227.62 118.992 227.62 119.412C227.62 119.64 227.674 119.832 227.782 119.988C227.89 120.132 228.04 120.252 228.232 120.348C228.424 120.444 228.652 120.528 228.916 120.6C229.18 120.66 229.468 120.732 229.78 120.816C230.128 120.9 230.482 121.008 230.842 121.14C231.202 121.26 231.538 121.422 231.85 121.626C232.162 121.818 232.414 122.07 232.606 122.382C232.81 122.682 232.912 123.06 232.912 123.516C232.912 124.044 232.768 124.506 232.48 124.902C232.192 125.286 231.79 125.586 231.274 125.802C230.77 126.018 230.182 126.126 229.51 126.126C228.586 126.126 227.818 125.922 227.206 125.514C226.606 125.094 226.204 124.482 226 123.678L227.296 123.246ZM235.677 117V114.48H237.027V117H239.421V118.26H237.027V123.102C237.027 123.654 237.141 124.056 237.369 124.308C237.609 124.56 237.909 124.71 238.269 124.758C238.641 124.806 239.025 124.806 239.421 124.758V125.928C238.953 126.036 238.491 126.066 238.035 126.018C237.591 125.97 237.189 125.838 236.829 125.622C236.481 125.394 236.199 125.076 235.983 124.668C235.779 124.26 235.677 123.738 235.677 123.102V118.26H234.327V117H235.677ZM247.063 126L246.955 124.38C246.703 124.932 246.331 125.364 245.839 125.676C245.347 125.976 244.723 126.126 243.967 126.126C243.319 126.126 242.767 126.024 242.311 125.82C241.855 125.616 241.501 125.328 241.249 124.956C241.009 124.572 240.889 124.122 240.889 123.606C240.889 122.85 241.171 122.232 241.735 121.752C242.299 121.26 243.115 120.96 244.183 120.852L246.955 120.546V119.826C246.955 119.322 246.769 118.92 246.397 118.62C246.025 118.308 245.521 118.152 244.885 118.152C244.261 118.152 243.739 118.296 243.319 118.584C242.911 118.872 242.629 119.286 242.473 119.826L241.249 119.394C241.489 118.602 241.927 117.984 242.563 117.54C243.211 117.096 243.997 116.874 244.921 116.874C245.989 116.874 246.817 117.15 247.405 117.702C248.005 118.242 248.305 118.98 248.305 119.916V126H247.063ZM246.955 121.698L244.165 122.022C243.565 122.094 243.109 122.262 242.797 122.526C242.485 122.778 242.329 123.114 242.329 123.534C242.329 123.954 242.479 124.29 242.779 124.542C243.091 124.794 243.535 124.92 244.111 124.92C244.771 124.92 245.311 124.788 245.731 124.524C246.151 124.26 246.457 123.906 246.649 123.462C246.853 123.006 246.955 122.514 246.955 121.986V121.698ZM250.939 117H252.181L252.253 118.278C252.541 117.834 252.919 117.492 253.387 117.252C253.855 117 254.401 116.874 255.025 116.874C255.709 116.874 256.309 117.024 256.825 117.324C257.341 117.612 257.743 118.05 258.031 118.638C258.319 119.214 258.463 119.94 258.463 120.816V126H257.113V120.978C257.113 120.042 256.909 119.334 256.501 118.854C256.105 118.362 255.529 118.116 254.773 118.116C253.993 118.116 253.381 118.374 252.937 118.89C252.505 119.406 252.289 120.168 252.289 121.176V126H250.939V117ZM261.657 117V114.48H263.007V117H265.401V118.26H263.007V123.102C263.007 123.654 263.121 124.056 263.349 124.308C263.589 124.56 263.889 124.71 264.249 124.758C264.621 124.806 265.005 124.806 265.401 124.758V125.928C264.933 126.036 264.471 126.066 264.015 126.018C263.571 125.97 263.169 125.838 262.809 125.622C262.461 125.394 262.179 125.076 261.963 124.668C261.759 124.26 261.657 123.738 261.657 123.102V118.26H260.307V117H261.657ZM268.147 126.09C267.871 126.09 267.637 125.994 267.445 125.802C267.265 125.61 267.175 125.376 267.175 125.1C267.175 124.824 267.265 124.59 267.445 124.398C267.637 124.206 267.871 124.11 268.147 124.11C268.411 124.11 268.639 124.206 268.831 124.398C269.023 124.59 269.119 124.824 269.119 125.1C269.119 125.376 269.023 125.61 268.831 125.802C268.639 125.994 268.411 126.09 268.147 126.09ZM26.03 135.4H27.47V140.962H34.22V135.4H35.66V148H34.22V142.222H27.47V148H26.03V135.4ZM42.4654 148.126C41.6134 148.126 40.8514 147.94 40.1794 147.568C39.5074 147.196 38.9794 146.668 38.5954 145.984C38.2114 145.288 38.0194 144.466 38.0194 143.518C38.0194 142.558 38.2114 141.73 38.5954 141.034C38.9914 140.338 39.5254 139.804 40.1974 139.432C40.8814 139.06 41.6494 138.874 42.5014 138.874C43.3534 138.874 44.1154 139.06 44.7874 139.432C45.4714 139.804 46.0054 140.338 46.3894 141.034C46.7854 141.718 46.9834 142.534 46.9834 143.482C46.9834 144.442 46.7854 145.27 46.3894 145.966C45.9934 146.662 45.4534 147.196 44.7694 147.568C44.0854 147.94 43.3174 148.126 42.4654 148.126ZM42.4474 146.848C42.9754 146.848 43.4734 146.734 43.9414 146.506C44.4094 146.266 44.7874 145.9 45.0754 145.408C45.3754 144.904 45.5254 144.268 45.5254 143.5C45.5254 142.72 45.3814 142.084 45.0934 141.592C44.8054 141.1 44.4274 140.74 43.9594 140.512C43.5034 140.272 43.0114 140.152 42.4834 140.152C41.9554 140.152 41.4634 140.272 41.0074 140.512C40.5514 140.74 40.1794 141.106 39.8914 141.61C39.6154 142.102 39.4774 142.732 39.4774 143.5C39.4774 144.28 39.6154 144.916 39.8914 145.408C40.1674 145.9 40.5274 146.266 40.9714 146.506C41.4274 146.734 41.9194 146.848 42.4474 146.848ZM52.3266 148H51.1026L48.2766 139H49.6446L51.7146 146.326L54.0366 139H55.2606L57.5466 146.308L59.5986 139H60.9306L58.1226 148H56.8806L54.6126 141.016L52.3266 148ZM71.6438 148.126C70.7678 148.126 69.9998 147.934 69.3398 147.55C68.6798 147.166 68.1638 146.632 67.7918 145.948C67.4318 145.252 67.2518 144.448 67.2518 143.536C67.2518 142.612 67.4318 141.802 67.7918 141.106C68.1638 140.398 68.6798 139.852 69.3398 139.468C69.9998 139.072 70.7678 138.874 71.6438 138.874C72.5678 138.874 73.3778 139.09 74.0738 139.522C74.7698 139.942 75.2738 140.53 75.5858 141.286L74.3438 141.718C74.1638 141.238 73.8338 140.86 73.3538 140.584C72.8858 140.296 72.3398 140.152 71.7158 140.152C71.1038 140.152 70.5698 140.29 70.1138 140.566C69.6698 140.842 69.3218 141.232 69.0698 141.736C68.8298 142.24 68.7098 142.834 68.7098 143.518C68.7098 144.526 68.9798 145.336 69.5198 145.948C70.0598 146.548 70.7798 146.848 71.6798 146.848C72.2918 146.848 72.8378 146.71 73.3178 146.434C73.7978 146.158 74.1518 145.786 74.3798 145.318L75.6038 145.75C75.2798 146.494 74.7698 147.076 74.0738 147.496C73.3778 147.916 72.5678 148.126 71.6438 148.126ZM83.4458 148L83.3378 146.38C83.0858 146.932 82.7138 147.364 82.2218 147.676C81.7298 147.976 81.1058 148.126 80.3498 148.126C79.7018 148.126 79.1498 148.024 78.6938 147.82C78.2378 147.616 77.8838 147.328 77.6318 146.956C77.3918 146.572 77.2718 146.122 77.2718 145.606C77.2718 144.85 77.5538 144.232 78.1178 143.752C78.6818 143.26 79.4978 142.96 80.5658 142.852L83.3378 142.546V141.826C83.3378 141.322 83.1518 140.92 82.7798 140.62C82.4078 140.308 81.9038 140.152 81.2678 140.152C80.6438 140.152 80.1218 140.296 79.7018 140.584C79.2938 140.872 79.0118 141.286 78.8558 141.826L77.6318 141.394C77.8718 140.602 78.3098 139.984 78.9458 139.54C79.5938 139.096 80.3798 138.874 81.3038 138.874C82.3718 138.874 83.1998 139.15 83.7878 139.702C84.3878 140.242 84.6878 140.98 84.6878 141.916V148H83.4458ZM83.3378 143.698L80.5478 144.022C79.9478 144.094 79.4918 144.262 79.1798 144.526C78.8678 144.778 78.7118 145.114 78.7118 145.534C78.7118 145.954 78.8618 146.29 79.1618 146.542C79.4738 146.794 79.9178 146.92 80.4938 146.92C81.1538 146.92 81.6938 146.788 82.1138 146.524C82.5338 146.26 82.8398 145.906 83.0318 145.462C83.2358 145.006 83.3378 144.514 83.3378 143.986V143.698ZM87.3215 139H88.5635L88.6355 140.278C88.9235 139.834 89.3015 139.492 89.7695 139.252C90.2375 139 90.7835 138.874 91.4075 138.874C92.0915 138.874 92.6915 139.024 93.2075 139.324C93.7235 139.612 94.1255 140.05 94.4135 140.638C94.7015 141.214 94.8455 141.94 94.8455 142.816V148H93.4955V142.978C93.4955 142.042 93.2915 141.334 92.8835 140.854C92.4875 140.362 91.9115 140.116 91.1555 140.116C90.3755 140.116 89.7635 140.374 89.3195 140.89C88.8875 141.406 88.6715 142.168 88.6715 143.176V148H87.3215V139ZM102.653 135.4H104.093V148H102.653V135.4ZM112.054 135.04H113.404V140.224C113.692 139.792 114.082 139.462 114.574 139.234C115.066 138.994 115.618 138.874 116.23 138.874C116.89 138.874 117.478 139.024 117.994 139.324C118.51 139.624 118.912 140.068 119.2 140.656C119.5 141.244 119.65 141.976 119.65 142.852V148H118.21V143.014C118.21 142.078 118.012 141.364 117.616 140.872C117.22 140.368 116.644 140.116 115.888 140.116C115.108 140.116 114.496 140.38 114.052 140.908C113.62 141.436 113.404 142.204 113.404 143.212V148H112.054V135.04ZM126.047 148.126C125.207 148.126 124.457 147.922 123.797 147.514C123.149 147.106 122.639 146.548 122.267 145.84C121.895 145.132 121.709 144.322 121.709 143.41C121.709 142.534 121.895 141.754 122.267 141.07C122.639 140.386 123.149 139.852 123.797 139.468C124.445 139.072 125.183 138.874 126.011 138.874C126.827 138.874 127.553 139.054 128.189 139.414C128.837 139.774 129.341 140.272 129.701 140.908C130.061 141.544 130.229 142.27 130.205 143.086C130.205 143.218 130.199 143.356 130.187 143.5C130.175 143.644 130.163 143.8 130.151 143.968H123.185C123.209 144.532 123.347 145.03 123.599 145.462C123.851 145.894 124.181 146.236 124.589 146.488C125.009 146.728 125.483 146.848 126.011 146.848C126.707 146.848 127.295 146.716 127.775 146.452C128.267 146.188 128.621 145.81 128.837 145.318L130.007 145.786C129.647 146.542 129.125 147.124 128.441 147.532C127.757 147.928 126.959 148.126 126.047 148.126ZM128.729 142.798C128.741 142.282 128.627 141.826 128.387 141.43C128.159 141.034 127.835 140.722 127.415 140.494C126.995 140.266 126.509 140.152 125.957 140.152C125.477 140.152 125.039 140.266 124.643 140.494C124.247 140.722 123.917 141.04 123.653 141.448C123.401 141.844 123.251 142.294 123.203 142.798H128.729ZM132.427 135.04H133.777V148H132.427V135.04ZM137.729 146.182L137.873 146.164V151.6H136.523V139H137.765L137.855 140.674C138.131 140.17 138.539 139.744 139.079 139.396C139.619 139.048 140.297 138.874 141.113 138.874C141.893 138.874 142.595 139.066 143.219 139.45C143.843 139.822 144.335 140.356 144.695 141.052C145.055 141.736 145.235 142.552 145.235 143.5C145.235 144.436 145.061 145.252 144.713 145.948C144.377 146.632 143.897 147.166 143.273 147.55C142.661 147.934 141.941 148.126 141.113 148.126C140.249 148.126 139.535 147.94 138.971 147.568C138.407 147.196 137.993 146.734 137.729 146.182ZM143.777 143.5C143.777 142.468 143.507 141.652 142.967 141.052C142.439 140.44 141.725 140.134 140.825 140.134C140.261 140.134 139.751 140.266 139.295 140.53C138.851 140.794 138.503 141.178 138.251 141.682C137.999 142.186 137.873 142.792 137.873 143.5C137.873 144.196 137.999 144.796 138.251 145.3C138.503 145.804 138.851 146.194 139.295 146.47C139.751 146.734 140.261 146.866 140.825 146.866C141.725 146.866 142.439 146.566 142.967 145.966C143.507 145.354 143.777 144.532 143.777 143.5ZM158.586 139H159.99L154.842 151.6H153.546L155.076 147.874L151.44 139H152.916L155.796 146.272L158.586 139ZM165.6 148.126C164.748 148.126 163.986 147.94 163.314 147.568C162.642 147.196 162.114 146.668 161.73 145.984C161.346 145.288 161.154 144.466 161.154 143.518C161.154 142.558 161.346 141.73 161.73 141.034C162.126 140.338 162.66 139.804 163.332 139.432C164.016 139.06 164.784 138.874 165.636 138.874C166.488 138.874 167.25 139.06 167.922 139.432C168.606 139.804 169.14 140.338 169.524 141.034C169.92 141.718 170.118 142.534 170.118 143.482C170.118 144.442 169.92 145.27 169.524 145.966C169.128 146.662 168.588 147.196 167.904 147.568C167.22 147.94 166.452 148.126 165.6 148.126ZM165.582 146.848C166.11 146.848 166.608 146.734 167.076 146.506C167.544 146.266 167.922 145.9 168.21 145.408C168.51 144.904 168.66 144.268 168.66 143.5C168.66 142.72 168.516 142.084 168.228 141.592C167.94 141.1 167.562 140.74 167.094 140.512C166.638 140.272 166.146 140.152 165.618 140.152C165.09 140.152 164.598 140.272 164.142 140.512C163.686 140.74 163.314 141.106 163.026 141.61C162.75 142.102 162.612 142.732 162.612 143.5C162.612 144.28 162.75 144.916 163.026 145.408C163.302 145.9 163.662 146.266 164.106 146.506C164.562 146.734 165.054 146.848 165.582 146.848ZM179.691 148H178.467L178.377 146.704C178.101 147.16 177.729 147.514 177.261 147.766C176.793 148.006 176.247 148.126 175.623 148.126C174.927 148.126 174.321 147.982 173.805 147.694C173.289 147.406 172.887 146.974 172.599 146.398C172.323 145.822 172.185 145.096 172.185 144.22V139H173.517V144.076C173.517 145 173.715 145.702 174.111 146.182C174.519 146.65 175.101 146.884 175.857 146.884C176.625 146.884 177.231 146.638 177.675 146.146C178.131 145.642 178.359 144.886 178.359 143.878V139H179.691V148ZM188.058 139V136.48H189.408V139H191.802V140.26H189.408V145.102C189.408 145.654 189.522 146.056 189.75 146.308C189.99 146.56 190.29 146.71 190.65 146.758C191.022 146.806 191.406 146.806 191.802 146.758V147.928C191.334 148.036 190.872 148.066 190.416 148.018C189.972 147.97 189.57 147.838 189.21 147.622C188.862 147.394 188.58 147.076 188.364 146.668C188.16 146.26 188.058 145.738 188.058 145.102V140.26H186.708V139H188.058ZM197.698 148.126C196.846 148.126 196.084 147.94 195.412 147.568C194.74 147.196 194.212 146.668 193.828 145.984C193.444 145.288 193.252 144.466 193.252 143.518C193.252 142.558 193.444 141.73 193.828 141.034C194.224 140.338 194.758 139.804 195.43 139.432C196.114 139.06 196.882 138.874 197.734 138.874C198.586 138.874 199.348 139.06 200.02 139.432C200.704 139.804 201.238 140.338 201.622 141.034C202.018 141.718 202.216 142.534 202.216 143.482C202.216 144.442 202.018 145.27 201.622 145.966C201.226 146.662 200.686 147.196 200.002 147.568C199.318 147.94 198.55 148.126 197.698 148.126ZM197.68 146.848C198.208 146.848 198.706 146.734 199.174 146.506C199.642 146.266 200.02 145.9 200.308 145.408C200.608 144.904 200.758 144.268 200.758 143.5C200.758 142.72 200.614 142.084 200.326 141.592C200.038 141.1 199.66 140.74 199.192 140.512C198.736 140.272 198.244 140.152 197.716 140.152C197.188 140.152 196.696 140.272 196.24 140.512C195.784 140.74 195.412 141.106 195.124 141.61C194.848 142.102 194.71 142.732 194.71 143.5C194.71 144.28 194.848 144.916 195.124 145.408C195.4 145.9 195.76 146.266 196.204 146.506C196.66 146.734 197.152 146.848 197.68 146.848ZM211.375 140.818L211.231 140.836V135.04H212.581V148H211.339L211.249 146.326C210.973 146.83 210.559 147.256 210.007 147.604C209.467 147.952 208.795 148.126 207.991 148.126C207.163 148.126 206.437 147.94 205.813 147.568C205.201 147.184 204.721 146.644 204.373 145.948C204.037 145.252 203.869 144.436 203.869 143.5C203.869 142.564 204.037 141.754 204.373 141.07C204.721 140.374 205.201 139.834 205.813 139.45C206.437 139.066 207.163 138.874 207.991 138.874C208.843 138.874 209.551 139.06 210.115 139.432C210.679 139.804 211.099 140.266 211.375 140.818ZM205.327 143.5C205.327 144.532 205.591 145.354 206.119 145.966C206.647 146.566 207.367 146.866 208.279 146.866C208.843 146.866 209.347 146.734 209.791 146.47C210.235 146.206 210.583 145.822 210.835 145.318C211.099 144.814 211.231 144.208 211.231 143.5C211.231 142.792 211.099 142.192 210.835 141.7C210.583 141.196 210.235 140.812 209.791 140.548C209.347 140.272 208.843 140.134 208.279 140.134C207.379 140.134 206.659 140.44 206.119 141.052C205.591 141.652 205.327 142.468 205.327 143.5ZM220.977 148L220.869 146.38C220.617 146.932 220.245 147.364 219.753 147.676C219.261 147.976 218.637 148.126 217.881 148.126C217.233 148.126 216.681 148.024 216.225 147.82C215.769 147.616 215.415 147.328 215.163 146.956C214.923 146.572 214.803 146.122 214.803 145.606C214.803 144.85 215.085 144.232 215.649 143.752C216.213 143.26 217.029 142.96 218.097 142.852L220.869 142.546V141.826C220.869 141.322 220.683 140.92 220.311 140.62C219.939 140.308 219.435 140.152 218.799 140.152C218.175 140.152 217.653 140.296 217.233 140.584C216.825 140.872 216.543 141.286 216.387 141.826L215.163 141.394C215.403 140.602 215.841 139.984 216.477 139.54C217.125 139.096 217.911 138.874 218.835 138.874C219.903 138.874 220.731 139.15 221.319 139.702C221.919 140.242 222.219 140.98 222.219 141.916V148H220.977ZM220.869 143.698L218.079 144.022C217.479 144.094 217.023 144.262 216.711 144.526C216.399 144.778 216.243 145.114 216.243 145.534C216.243 145.954 216.393 146.29 216.693 146.542C217.005 146.794 217.449 146.92 218.025 146.92C218.685 146.92 219.225 146.788 219.645 146.524C220.065 146.26 220.371 145.906 220.563 145.462C220.767 145.006 220.869 144.514 220.869 143.986V143.698ZM230.955 139H232.359L227.211 151.6H225.915L227.445 147.874L223.809 139H225.285L228.165 146.272L230.955 139ZM237.609 135.274C238.377 135.274 239.055 135.424 239.643 135.724C240.243 136.024 240.711 136.45 241.047 137.002C241.383 137.542 241.551 138.19 241.551 138.946C241.551 139.834 241.359 140.554 240.975 141.106C240.591 141.658 240.069 142.06 239.409 142.312C238.749 142.564 237.993 142.69 237.141 142.69L237.087 144.562H235.863L235.791 141.7H236.259C236.775 141.7 237.261 141.67 237.717 141.61C238.185 141.538 238.593 141.406 238.941 141.214C239.301 141.022 239.583 140.746 239.787 140.386C239.991 140.014 240.093 139.534 240.093 138.946C240.093 138.442 239.991 138.01 239.787 137.65C239.583 137.29 239.295 137.02 238.923 136.84C238.563 136.648 238.125 136.552 237.609 136.552C236.817 136.552 236.193 136.75 235.737 137.146C235.281 137.542 235.053 138.112 235.053 138.856H233.721C233.709 138.124 233.865 137.494 234.189 136.966C234.513 136.426 234.969 136.012 235.557 135.724C236.145 135.424 236.829 135.274 237.609 135.274ZM236.547 148.09C236.271 148.09 236.037 147.994 235.845 147.802C235.665 147.61 235.575 147.376 235.575 147.1C235.575 146.824 235.665 146.59 235.845 146.398C236.037 146.206 236.271 146.11 236.547 146.11C236.823 146.11 237.051 146.206 237.231 146.398C237.423 146.59 237.519 146.824 237.519 147.1C237.519 147.376 237.423 147.61 237.231 147.802C237.051 147.994 236.823 148.09 236.547 148.09Z" fill="black"/>
<g clip-path="url(#clip2_1_142)">
<path d="M33 29C33.5531 29 34 29.4469 34 30V32H37.75C38.9937 32 40 33.0062 40 34.25V42.75C40 43.9937 38.9937 45 37.75 45H28.25C27.0062 45 26 43.9937 26 42.75V34.25C26 33.0062 27.0062 32 28.25 32H32V30C32 29.4469 32.4469 29 33 29ZM29.5 41C29.225 41 29 41.225 29 41.5C29 41.775 29.225 42 29.5 42H30.5C30.775 42 31 41.775 31 41.5C31 41.225 30.775 41 30.5 41H29.5ZM32.5 41C32.225 41 32 41.225 32 41.5C32 41.775 32.225 42 32.5 42H33.5C33.775 42 34 41.775 34 41.5C34 41.225 33.775 41 33.5 41H32.5ZM35.5 41C35.225 41 35 41.225 35 41.5C35 41.775 35.225 42 35.5 42H36.5C36.775 42 37 41.775 37 41.5C37 41.225 36.775 41 36.5 41H35.5ZM31.25 37C31.25 36.6685 31.1183 36.3505 30.8839 36.1161C30.6495 35.8817 30.3315 35.75 30 35.75C29.6685 35.75 29.3505 35.8817 29.1161 36.1161C28.8817 36.3505 28.75 36.6685 28.75 37C28.75 37.3315 28.8817 37.6495 29.1161 37.8839C29.3505 38.1183 29.6685 38.25 30 38.25C30.3315 38.25 30.6495 38.1183 30.8839 37.8839C31.1183 37.6495 31.25 37.3315 31.25 37ZM36 38.25C36.3315 38.25 36.6495 38.1183 36.8839 37.8839C37.1183 37.6495 37.25 37.3315 37.25 37C37.25 36.6685 37.1183 36.3505 36.8839 36.1161C36.6495 35.8817 36.3315 35.75 36 35.75C35.6685 35.75 35.3505 35.8817 35.1161 36.1161C34.8817 36.3505 34.75 36.6685 34.75 37C34.75 37.3315 34.8817 37.6495 35.1161 37.8839C35.3505 38.1183 35.6685 38.25 36 38.25ZM24.5 36H25V42H24.5C23.6719 42 23 41.3281 23 40.5V37.5C23 36.6719 23.6719 36 24.5 36ZM41.5 36C42.3281 36 43 36.6719 43 37.5V40.5C43 41.3281 42.3281 42 41.5 42H41V36H41.5Z" fill="white"/>
</g>
<path d="M62.044 30.4H64.834V38.266C64.834 38.794 64.942 39.25 65.158 39.634C65.374 40.006 65.668 40.288 66.04 40.48C66.424 40.66 66.868 40.75 67.372 40.75C67.888 40.75 68.338 40.66 68.722 40.48C69.118 40.288 69.424 40.006 69.64 39.634C69.856 39.25 69.964 38.794 69.964 38.266V30.4H72.754V38.05C72.754 38.902 72.604 39.646 72.304 40.282C72.016 40.918 71.614 41.446 71.098 41.866C70.594 42.286 70.018 42.604 69.37 42.82C68.722 43.024 68.044 43.126 67.336 43.126C66.388 43.126 65.512 42.94 64.708 42.568C63.904 42.196 63.256 41.638 62.764 40.894C62.284 40.138 62.044 39.19 62.044 38.05V30.4ZM80.2589 36.088C80.6909 36.088 81.0449 36.022 81.3209 35.89C81.5969 35.758 81.8009 35.566 81.9329 35.314C82.0769 35.05 82.1489 34.744 82.1489 34.396C82.1489 33.88 81.9929 33.472 81.6809 33.172C81.3809 32.872 80.9069 32.722 80.2589 32.722H77.6849V36.088H80.2589ZM84.9749 34.396C84.9749 34.888 84.8849 35.374 84.7049 35.854C84.5369 36.322 84.2669 36.754 83.8949 37.15C83.5349 37.534 83.0609 37.84 82.4729 38.068C81.8969 38.296 81.2069 38.41 80.4029 38.41H77.6849V43H74.8949V30.4H80.4029C81.4229 30.4 82.2689 30.586 82.9409 30.958C83.6249 31.318 84.1349 31.804 84.4709 32.416C84.8069 33.016 84.9749 33.676 84.9749 34.396ZM86.3846 36.79H94.1606V39.13H86.3846V36.79ZM102.232 32.722H101.602L98.0017 43H95.1397L99.6937 30.4H104.194L108.73 43H105.868L102.232 32.722ZM98.1817 37.96H105.526V40.282H98.1817V37.96ZM109.928 30.4H112.718V43H109.928V30.4ZM126.103 32.722H125.473L121.873 43H119.011L123.565 30.4H128.065L132.601 43H129.739L126.103 32.722ZM122.053 37.96H129.397V40.282H122.053V37.96ZM135.689 40.048C135.749 40.276 135.845 40.462 135.977 40.606C136.121 40.738 136.289 40.834 136.481 40.894C136.673 40.954 136.871 40.984 137.075 40.984C137.447 40.984 137.735 40.918 137.939 40.786C138.143 40.654 138.245 40.486 138.245 40.282C138.245 40.078 138.167 39.928 138.011 39.832C137.867 39.724 137.675 39.64 137.435 39.58C137.195 39.508 136.943 39.442 136.679 39.382C136.379 39.31 136.043 39.226 135.671 39.13C135.299 39.022 134.945 38.878 134.609 38.698C134.273 38.506 133.997 38.254 133.781 37.942C133.565 37.618 133.457 37.216 133.457 36.736C133.457 36.184 133.607 35.692 133.907 35.26C134.207 34.828 134.633 34.492 135.185 34.252C135.737 34 136.391 33.874 137.147 33.874C138.083 33.874 138.845 34.066 139.433 34.45C140.021 34.834 140.435 35.374 140.675 36.07L138.389 36.646C138.329 36.49 138.239 36.37 138.119 36.286C137.999 36.19 137.849 36.124 137.669 36.088C137.501 36.04 137.333 36.016 137.165 36.016C136.853 36.016 136.607 36.076 136.427 36.196C136.247 36.316 136.157 36.466 136.157 36.646C136.157 36.766 136.193 36.868 136.265 36.952C136.349 37.036 136.457 37.102 136.589 37.15C136.733 37.198 136.895 37.24 137.075 37.276C137.267 37.312 137.471 37.36 137.687 37.42C138.047 37.504 138.413 37.606 138.785 37.726C139.169 37.846 139.523 38.008 139.847 38.212C140.183 38.404 140.447 38.668 140.639 39.004C140.843 39.328 140.951 39.748 140.963 40.264C140.963 40.792 140.813 41.278 140.513 41.722C140.213 42.154 139.775 42.496 139.199 42.748C138.623 43 137.921 43.126 137.093 43.126C136.097 43.126 135.263 42.922 134.591 42.514C133.919 42.106 133.493 41.476 133.313 40.624L135.689 40.048ZM144.531 40.048C144.591 40.276 144.687 40.462 144.819 40.606C144.963 40.738 145.131 40.834 145.323 40.894C145.515 40.954 145.713 40.984 145.917 40.984C146.289 40.984 146.577 40.918 146.781 40.786C146.985 40.654 147.087 40.486 147.087 40.282C147.087 40.078 147.009 39.928 146.853 39.832C146.709 39.724 146.517 39.64 146.277 39.58C146.037 39.508 145.785 39.442 145.521 39.382C145.221 39.31 144.885 39.226 144.513 39.13C144.141 39.022 143.787 38.878 143.451 38.698C143.115 38.506 142.839 38.254 142.623 37.942C142.407 37.618 142.299 37.216 142.299 36.736C142.299 36.184 142.449 35.692 142.749 35.26C143.049 34.828 143.475 34.492 144.027 34.252C144.579 34 145.233 33.874 145.989 33.874C146.925 33.874 147.687 34.066 148.275 34.45C148.863 34.834 149.277 35.374 149.517 36.07L147.231 36.646C147.171 36.49 147.081 36.37 146.961 36.286C146.841 36.19 146.691 36.124 146.511 36.088C146.343 36.04 146.175 36.016 146.007 36.016C145.695 36.016 145.449 36.076 145.269 36.196C145.089 36.316 144.999 36.466 144.999 36.646C144.999 36.766 145.035 36.868 145.107 36.952C145.191 37.036 145.299 37.102 145.431 37.15C145.575 37.198 145.737 37.24 145.917 37.276C146.109 37.312 146.313 37.36 146.529 37.42C146.889 37.504 147.255 37.606 147.627 37.726C148.011 37.846 148.365 38.008 148.689 38.212C149.025 38.404 149.289 38.668 149.481 39.004C149.685 39.328 149.793 39.748 149.805 40.264C149.805 40.792 149.655 41.278 149.355 41.722C149.055 42.154 148.617 42.496 148.041 42.748C147.465 43 146.763 43.126 145.935 43.126C144.939 43.126 144.105 42.922 143.433 42.514C142.761 42.106 142.335 41.476 142.155 40.624L144.531 40.048ZM151.735 34H154.363V43H151.735V34ZM153.049 33.082C152.557 33.082 152.155 32.938 151.843 32.65C151.543 32.35 151.393 31.99 151.393 31.57C151.393 31.138 151.543 30.778 151.843 30.49C152.155 30.19 152.557 30.04 153.049 30.04C153.529 30.04 153.919 30.19 154.219 30.49C154.531 30.778 154.687 31.138 154.687 31.57C154.687 31.99 154.531 32.35 154.219 32.65C153.919 32.938 153.529 33.082 153.049 33.082ZM158.664 40.048C158.724 40.276 158.82 40.462 158.952 40.606C159.096 40.738 159.264 40.834 159.456 40.894C159.648 40.954 159.846 40.984 160.05 40.984C160.422 40.984 160.71 40.918 160.914 40.786C161.118 40.654 161.22 40.486 161.22 40.282C161.22 40.078 161.142 39.928 160.986 39.832C160.842 39.724 160.65 39.64 160.41 39.58C160.17 39.508 159.918 39.442 159.654 39.382C159.354 39.31 159.018 39.226 158.646 39.13C158.274 39.022 157.92 38.878 157.584 38.698C157.248 38.506 156.972 38.254 156.756 37.942C156.54 37.618 156.432 37.216 156.432 36.736C156.432 36.184 156.582 35.692 156.882 35.26C157.182 34.828 157.608 34.492 158.16 34.252C158.712 34 159.366 33.874 160.122 33.874C161.058 33.874 161.82 34.066 162.408 34.45C162.996 34.834 163.41 35.374 163.65 36.07L161.364 36.646C161.304 36.49 161.214 36.37 161.094 36.286C160.974 36.19 160.824 36.124 160.644 36.088C160.476 36.04 160.308 36.016 160.14 36.016C159.828 36.016 159.582 36.076 159.402 36.196C159.222 36.316 159.132 36.466 159.132 36.646C159.132 36.766 159.168 36.868 159.24 36.952C159.324 37.036 159.432 37.102 159.564 37.15C159.708 37.198 159.87 37.24 160.05 37.276C160.242 37.312 160.446 37.36 160.662 37.42C161.022 37.504 161.388 37.606 161.76 37.726C162.144 37.846 162.498 38.008 162.822 38.212C163.158 38.404 163.422 38.668 163.614 39.004C163.818 39.328 163.926 39.748 163.938 40.264C163.938 40.792 163.788 41.278 163.488 41.722C163.188 42.154 162.75 42.496 162.174 42.748C161.598 43 160.896 43.126 160.068 43.126C159.072 43.126 158.238 42.922 157.566 42.514C156.894 42.106 156.468 41.476 156.288 40.624L158.664 40.048ZM166.228 34V31.48H168.91V34H170.764V36.322H168.91V39.562C168.91 39.97 169 40.258 169.18 40.426C169.372 40.594 169.612 40.684 169.9 40.696C170.188 40.696 170.476 40.672 170.764 40.624V42.91C170.152 43.018 169.57 43.048 169.018 43C168.466 42.964 167.98 42.82 167.56 42.568C167.152 42.316 166.828 41.944 166.588 41.452C166.348 40.96 166.228 40.33 166.228 39.562V36.322H164.968V34H166.228ZM177.442 43L177.262 41.884C176.95 42.268 176.614 42.568 176.254 42.784C175.894 43 175.408 43.108 174.796 43.108C174.244 43.108 173.746 43.012 173.302 42.82C172.858 42.616 172.504 42.322 172.24 41.938C171.988 41.554 171.862 41.092 171.862 40.552C171.862 39.808 172.126 39.19 172.654 38.698C173.194 38.206 174.028 37.9 175.156 37.78L177.262 37.546V36.952C177.262 36.748 177.16 36.55 176.956 36.358C176.764 36.154 176.458 36.052 176.038 36.052C175.666 36.052 175.342 36.148 175.066 36.34C174.802 36.532 174.622 36.808 174.526 37.168L172.276 36.358C172.54 35.554 173.002 34.942 173.662 34.522C174.334 34.09 175.162 33.874 176.146 33.874C177.37 33.874 178.3 34.18 178.936 34.792C179.572 35.404 179.89 36.226 179.89 37.258V43H177.442ZM177.262 39.166L175.588 39.364C175.252 39.412 174.994 39.52 174.814 39.688C174.646 39.844 174.562 40.042 174.562 40.282C174.562 40.51 174.658 40.702 174.85 40.858C175.042 41.014 175.306 41.092 175.642 41.092C175.978 41.092 176.266 41.026 176.506 40.894C176.746 40.75 176.932 40.552 177.064 40.3C177.196 40.036 177.262 39.712 177.262 39.328V39.166ZM181.785 34H184.161L184.341 34.972C184.641 34.648 184.995 34.384 185.403 34.18C185.811 33.976 186.255 33.874 186.735 33.874C187.443 33.874 188.037 34.024 188.517 34.324C189.009 34.624 189.381 35.062 189.633 35.638C189.897 36.214 190.029 36.916 190.029 37.744V43H187.401V38.068C187.401 37.468 187.275 37.012 187.023 36.7C186.783 36.388 186.417 36.232 185.925 36.232C185.421 36.232 185.043 36.394 184.791 36.718C184.539 37.03 184.413 37.486 184.413 38.086V43H181.785V34ZM192.63 34V31.48H195.312V34H197.166V36.322H195.312V39.562C195.312 39.97 195.402 40.258 195.582 40.426C195.774 40.594 196.014 40.684 196.302 40.696C196.59 40.696 196.878 40.672 197.166 40.624V42.91C196.554 43.018 195.972 43.048 195.42 43C194.868 42.964 194.382 42.82 193.962 42.568C193.554 42.316 193.23 41.944 192.99 41.452C192.75 40.96 192.63 40.33 192.63 39.562V36.322H191.37V34H192.63Z" fill="white"/>
<path d="M274 30C273.447 30 273 30.4469 273 31V34C273 34.5531 273.447 35 274 35C274.553 35 275 34.5531 275 34V32H277C277.553 32 278 31.5531 278 31C278 30.4469 277.553 30 277 30H274ZM275 40C275 39.4469 274.553 39 274 39C273.447 39 273 39.4469 273 40V43C273 43.5531 273.447 44 274 44H277C277.553 44 278 43.5531 278 43C278 42.4469 277.553 42 277 42H275V40ZM283 30C282.447 30 282 30.4469 282 31C282 31.5531 282.447 32 283 32H285V34C285 34.5531 285.447 35 286 35C286.553 35 287 34.5531 287 34V31C287 30.4469 286.553 30 286 30H283ZM287 40C287 39.4469 286.553 39 286 39C285.447 39 285 39.4469 285 40V42H283C282.447 42 282 42.4469 282 43C282 43.5531 282.447 44 283 44H286C286.553 44 287 43.5531 287 43V40Z" fill="white"/>
<path d="M326.706 33.7062C327.097 33.3156 327.097 32.6812 326.706 32.2906C326.316 31.9 325.681 31.9 325.291 32.2906L322 35.5844L318.706 32.2937C318.316 31.9031 317.681 31.9031 317.291 32.2937C316.9 32.6844 316.9 33.3187 317.291 33.7094L320.584 37L317.294 40.2937C316.903 40.6844 316.903 41.3187 317.294 41.7094C317.684 42.1 318.319 42.1 318.709 41.7094L322 38.4156L325.294 41.7062C325.684 42.0969 326.319 42.0969 326.709 41.7062C327.1 41.3156 327.1 40.6812 326.709 40.2906L323.416 37L326.706 33.7062Z" fill="white"/>
</g>
<defs>
<clipPath id="clip0_1_142">
<rect width="350" height="450" rx="10" fill="white"/>
</clipPath>
<clipPath id="clip1_1_142">
<rect width="24" height="24" fill="white" transform="translate(299 401)"/>
</clipPath>
<clipPath id="clip2_1_142">
<rect width="20" height="16" fill="white" transform="translate(23 29)"/>
</clipPath>
</defs>
</svg>
