<svg width="201" height="224" viewBox="0 0 201 224" fill="none" xmlns="http://www.w3.org/2000/svg">
<mask id="mask0_2_41" style="mask-type:alpha" maskUnits="userSpaceOnUse" x="28" y="41" width="145" height="145">
<circle cx="100.5" cy="113.5" r="72.5" fill="#D9D9D9"/>
</mask>
<g mask="url(#mask0_2_41)">
<path d="M100.301 111.6L100.301 198.203L25.3013 154.901L100.301 111.6Z" fill="black"/>
<path d="M100.301 25L100.301 111.603L25.3013 68.3013L100.301 25Z" fill="black"/>
<path d="M100.301 111.6L175.301 154.901L100.301 198.203L100.301 111.6Z" fill="black"/>
<path d="M100.3 111.6L175.3 68.2987V154.901L100.3 111.6Z" fill="#BF9C5E"/>
<path d="M100.301 111.603L100.301 25L175.301 68.3013L100.301 111.603Z" fill="black"/>
<path d="M100.3 111.6L25.3 154.901L25.3 68.2987L100.3 111.6Z" fill="#BF9C5E"/>
</g>
<g clip-path="url(#clip0_2_41)">
<path d="M100 62C103.319 62 106 64.6812 106 68V80H128.5C135.962 80 142 86.0375 142 93.5V144.5C142 151.962 135.962 158 128.5 158H71.5C64.0375 158 58 151.962 58 144.5V93.5C58 86.0375 64.0375 80 71.5 80H94V68C94 64.6812 96.6812 62 100 62ZM79 134C77.35 134 76 135.35 76 137C76 138.65 77.35 140 79 140H85C86.65 140 88 138.65 88 137C88 135.35 86.65 134 85 134H79ZM97 134C95.35 134 94 135.35 94 137C94 138.65 95.35 140 97 140H103C104.65 140 106 138.65 106 137C106 135.35 104.65 134 103 134H97ZM115 134C113.35 134 112 135.35 112 137C112 138.65 113.35 140 115 140H121C122.65 140 124 138.65 124 137C124 135.35 122.65 134 121 134H115ZM89.5 110C89.5 108.011 88.7098 106.103 87.3033 104.697C85.8968 103.29 83.9891 102.5 82 102.5C80.0109 102.5 78.1032 103.29 76.6967 104.697C75.2902 106.103 74.5 108.011 74.5 110C74.5 111.989 75.2902 113.897 76.6967 115.303C78.1032 116.71 80.0109 117.5 82 117.5C83.9891 117.5 85.8968 116.71 87.3033 115.303C88.7098 113.897 89.5 111.989 89.5 110ZM118 117.5C119.989 117.5 121.897 116.71 123.303 115.303C124.71 113.897 125.5 111.989 125.5 110C125.5 108.011 124.71 106.103 123.303 104.697C121.897 103.29 119.989 102.5 118 102.5C116.011 102.5 114.103 103.29 112.697 104.697C111.29 106.103 110.5 108.011 110.5 110C110.5 111.989 111.29 113.897 112.697 115.303C114.103 116.71 116.011 117.5 118 117.5ZM49 104H52V140H49C44.0312 140 40 135.969 40 131V113C40 108.031 44.0312 104 49 104ZM151 104C155.969 104 160 108.031 160 113V131C160 135.969 155.969 140 151 140H148V104H151Z" fill="white"/>
</g>
<defs>
<clipPath id="clip0_2_41">
<rect width="120" height="96" fill="white" transform="translate(40 62)"/>
</clipPath>
</defs>
</svg>
